<?xml version="1.0" encoding="utf-8"?>
<!-- Generator: Adobe Illustrator 22.0.1, SVG Export Plug-In . SVG Version: 6.00 Build 0)  -->
<svg version="1.1" id="Layer_1" xmlns="http://www.w3.org/2000/svg" xmlns:xlink="http://www.w3.org/1999/xlink" x="0px" y="0px"
	 viewBox="0 0 833.4 240" style="enable-background:new 0 0 833.4 240;" xml:space="preserve">
<style type="text/css">
	.st0{fill:#F2F2F2;}
	.st1{fill:#845E00;}
	.st2{fill:#F7BC16;}
</style>
<title>Fichier 2_logo_white</title>
<g>
	<path class="st0" d="M223.2,110.8h-9.9v33H198v-77h15.3v31.3h9.7l26.8-31.3h18.5l-32.8,37.5l34.2,39.5h-18.4L223.2,110.8z"/>
	<path class="st0" d="M313.5,115.8h-19v28h-15.3v-77h38.7c16.1,0,26.8,9.8,26.8,24.4c0,10.6-5.9,18.6-15.6,22.3l22.2,30.3h-18
		L313.5,115.8z M294.5,103.1H315c8.3,0,13.8-4.7,13.8-11.9c0-7.1-5.1-11.8-12.8-11.8h-21.5V103.1z"/>
	<path class="st0" d="M424.1,66.8l-31,48.9v28.1h-15.4v-28.1l-31-48.9h16.5l22.3,35.3l22.2-35.3H424.1z"/>
	<path class="st0" d="M470.2,66.8h-37.6v12.7h35.9c7.6,0,12.5,5.1,12.5,12.8c0,7.8-4.7,12.9-12.5,12.9h-20.6l-15.3,0.1v38.5h15.3
		v-25.9h21.7c16.4,0,27.3-10.4,27.3-26.1C496.9,76.8,486.3,66.8,470.2,66.8z"/>
	<path class="st0" d="M569.4,79.5h-26.5v64.3h-15.4V79.5H501V66.8h68.5L569.4,79.5L569.4,79.5z"/>
	<path class="st0" d="M571.8,105.3c0-23.7,18-39.5,45-39.5c26.8,0,44.8,15.8,44.8,39.5s-18,39.5-44.8,39.5
		C589.8,144.8,571.8,129,571.8,105.3z M645.9,105.3c0-16.1-11.7-26.8-29-26.8c-17.5,0-29.1,10.7-29.1,26.8s11.7,26.8,29.1,26.8
		C634.2,132.1,645.9,121.4,645.9,105.3z"/>
	<path class="st0" d="M705.8,115.8h-19v28h-15.3v-77h38.7c16.1,0,26.8,9.8,26.8,24.4c0,10.6-5.9,18.6-15.6,22.3l22.2,30.3h-18
		L705.8,115.8z M686.8,103.1h20.5c8.3,0,13.8-4.7,13.8-11.9c0-7.1-5.1-11.8-12.8-11.8h-21.5V103.1z"/>
	<path class="st0" d="M743.5,105.3c0-23.7,18-39.5,45-39.5c26.8,0,44.8,15.8,44.8,39.5s-18,39.5-44.8,39.5
		C761.5,144.8,743.5,129,743.5,105.3z M817.6,105.3c0-16.1-11.7-26.8-29-26.8c-17.5,0-29.1,10.7-29.1,26.8s11.7,26.8,29.1,26.8
		C805.9,132.1,817.6,121.4,817.6,105.3z"/>
</g>
<g>
	<path class="st1" d="M123.1,152l0.4-0.2l3.2-2.1l2.7-2.3l1.4,0.8l1.1,4.2l4,12.9l-1.5,1.4l-4.1,0.5c0,0-3.3-1.7-3.7-2.7
		s-4.9-10-4.9-10L123.1,152z"/>
	<path class="st2" d="M123.2,151.9l12.2,14.1c-5.2,3.7-10.9,6.6-17,8.8l-9-9l-6.1-6.1c-0.1,0-34.5-34.2-34.5-34.2l-14.1-14.1
		l47.1-47.7l-0.2,28.5l-18.9,19l40,40L123.2,151.9z"/>
	<path class="st2" d="M166.8,106c0,24.3-12,45.9-30.3,59.2c-0.4,0.3-0.8,0.6-1.2,0.8l-6.1-18.7c11.7-10,19-24.8,19-41.3
		c0-30.1-24.5-54.5-54.5-54.5S39.3,76,39.3,106c0,6.2,1.1,12.2,3,17.7c0.6,1.8,1.3,3.6,2.1,5.3c5.4,11.6,14.8,20.9,26.4,26.3
		l23.6,23.6h-0.6c-40.3,0-73-32.8-73-73c0-40.3,32.8-73,73-73C134.1,33,166.8,65.8,166.8,106z"/>
	<path class="st1" d="M135.3,166l-12.2-14.1c2.1-1.4,4.1-2.9,6.1-4.5l0,0L135.3,166z"/>
	<path class="st1" d="M70.4,125.3l12.2-14.1c1.7,1.9,5.4,5.3,5.4,5.3L70.4,125.3z"/>
</g>
</svg>
