<?xml version="1.0" encoding="UTF-8" standalone="no"?>
<!-- Created with Inkscape (http://www.inkscape.org/) -->
<svg xmlns:dc="http://purl.org/dc/elements/1.1/" xmlns:cc="http://creativecommons.org/ns#" xmlns:rdf="http://www.w3.org/1999/02/22-rdf-syntax-ns#" xmlns:svg="http://www.w3.org/2000/svg" xmlns="http://www.w3.org/2000/svg" xmlns:sodipodi="http://sodipodi.sourceforge.net/DTD/sodipodi-0.dtd" xmlns:inkscape="http://www.inkscape.org/namespaces/inkscape" width="894" height="105" viewBox="0 0 236.53749 27.781249" version="1.1" id="svg446" inkscape:version="0.92.0 r15299" sodipodi:docname="bitfinex.svg">
  <defs id="defs440"/>
  <sodipodi:namedview id="base" pagecolor="#ffffff" bordercolor="#666666" borderopacity="1.0" inkscape:pageopacity="0.0" inkscape:pageshadow="2" inkscape:zoom="0.86180571" inkscape:cx="426.69788" inkscape:cy="56.847669" inkscape:document-units="mm" inkscape:current-layer="layer1" showgrid="false" fit-margin-top="0" fit-margin-left="0" fit-margin-right="0" fit-margin-bottom="0" units="px" inkscape:window-width="1280" inkscape:window-height="744" inkscape:window-x="-4" inkscape:window-y="-4" inkscape:window-maximized="1"/>
  <metadata id="metadata443">
    <rdf:RDF>
      <cc:Work rdf:about="">
        <dc:format>image/svg+xml</dc:format>
        <dc:type rdf:resource="http://purl.org/dc/dcmitype/StillImage"/>
        <dc:title/>
      </cc:Work>
    </rdf:RDF>
  </metadata>
  <g inkscape:label="Layer 1" inkscape:groupmode="layer" id="layer1" transform="translate(357.06977,-214.71208)">
    <g style="fill:none;fill-rule:nonzero;stroke:none;stroke-width:1" id="logo3-dark-theme" transform="matrix(0.26458333,0,0,0.26458333,-356.96504,214.97666)">
      <path style="fill:#97c554" inkscape:connector-curvature="0" d="m 792.54013,88.413524 c 4.79539,5.078304 31.13483,29.418006 72.47771,1.169879 C 894.91299,66.302031 894.16613,15.826969 891.29422,0.58443941 890.29374,2.8027376 855.56962,78.843786 792.54013,88.413524 Z M 891.2902,0.57153794 C 890.92402,0.42027103 852.46253,-4.8234444 814.4402,19.66587 790.82961,34.872917 787.70858,57.130084 788.78584,71.960977 844.05894,65.77562 890.03638,2.3153692 891.2902,0.57153794 Z" id="Path-1-Copy-9"/>
      <path style="fill:#709b30" inkscape:connector-curvature="0" d="M 891.2902,0.57153794 C 890.92402,0.42027103 852.46253,-4.8234444 814.4402,19.66587 790.82961,34.872917 787.70858,57.130084 788.78584,71.960977 844.05894,65.77562 890.03638,2.3153692 891.2902,0.57153794 Z" id="Path-1-Copy-8"/>
      <path style="fill:#dddddd" inkscape:connector-curvature="0" d="m 62.263189,85.445 h -43.056 V 62.513 h 43.056 c 10.764,0 16.263,5.148 16.263,11.817 0,6.435 -5.382,11.115 -16.263,11.115 z m -1.404,-35.217 h -41.652 V 30.923 h 41.652 c 11.349,0 15.795,3.978 15.795,9.477 0,5.031 -5.148,9.828 -15.795,9.828 z m 10.998,5.85 c 18.135,-0.585 24.687,-9.594 24.687,-19.422 0,-10.764 -8.541,-19.656 -29.367,-19.656 h -66.573 v 82.134 h 68.562 c 17.082,0 29.835,-7.137 29.835,-22.464 0,-10.881 -7.137,-20.124 -27.144,-20.592 z M 120.97319,17 v 82.134 h 18.603 V 17 Z m 94.044,15.561 h 40.95 V 17 h -100.503 v 15.561 h 40.95 v 66.573 h 18.603 z M 271.85519,17 v 82.134 h 18.603 V 67.076 h 43.641 V 53.621 h -43.641 V 31.157 h 70.902 V 17 Z m 104.574,0 v 82.134 h 18.603 V 17 Z m 62.22,20.007 61.659,62.127 h 21.06 V 17 h -18.369 V 76.202 L 443.79719,17 h -23.634 v 82.134 h 18.486 z M 546.49919,17 v 82.134 h 91.026 V 85.328 h -72.423 V 62.747 h 43.407 V 49.994 h -43.407 V 31.157 h 72.423 V 17 Z m 215.607,0 h -24.57 L 706.18019,45.899 675.05819,17 h -24.921 l 43.758,40.482 -45.396,41.652 h 24.57 l 32.877,-30.303 32.76,30.303 h 25.038 l -45.513,-41.769 z" id="BITFINEX-Copy-3"/>
    </g>
  </g>
</svg>