<?xml version="1.0" encoding="UTF-8"?>
<svg width="839px" height="212px" viewBox="0 0 839 212" version="1.1" xmlns="http://www.w3.org/2000/svg" xmlns:xlink="http://www.w3.org/1999/xlink">
    <!-- Generator: Sketch 48.1 (47250) - http://www.bohemiancoding.com/sketch -->
    <title>OKCOIN</title>
    <desc>Created with Sketch.</desc>
    <defs></defs>
    <g id="Visual-视觉文件" stroke="none" stroke-width="1" fill="none" fill-rule="evenodd">
        <g id="OKCOIN">
            <g id="okcoin">
                <g id="OKCoin-Brand">
                    <rect id="Rectangle-2" x="0" y="0" width="785" height="212"></rect>
                    <circle id="Oval" fill="#3075EE" fill-rule="nonzero" cx="63.8785381" cy="64.8063697" r="63.8789474"></circle>
                    <circle id="Oval" fill="#205FEC" fill-rule="nonzero" cx="159.170135" cy="163.092687" r="48.7135088"></circle>
                    <circle id="Oval" fill="#5795F1" fill-rule="nonzero" cx="182.507963" cy="60.4147925" r="42.2233333"></circle>
                    <circle id="Oval" fill="#88BDF3" fill-rule="nonzero" cx="63.888687" cy="173.267406" r="31.195614"></circle>
                    <path d="M353.333333,109.245088 C353.381298,116.193504 352.217072,123.09705 349.892982,129.645439 C347.715239,135.822953 344.340692,141.510392 339.962456,146.382281 C335.484133,151.275272 330.012526,155.155485 323.913684,157.763333 C309.939594,163.365011 294.34409,163.365011 280.37,157.763333 C274.255572,155.144782 268.761763,151.2668 264.246842,146.382281 C259.831892,141.537473 256.452695,135.842198 254.316316,129.645439 C249.835721,116.442891 249.835721,102.130969 254.316316,88.9284211 C256.44115,82.7041397 259.821085,76.9823008 264.246842,72.117193 C268.763606,67.2347766 274.256936,63.3571313 280.37,60.7361404 C294.34409,55.1344626 309.939594,55.1344626 323.913684,60.7361404 C330.011544,63.3457434 335.482802,67.2257088 339.962456,72.117193 C344.351662,77.0091829 347.726964,82.7231769 349.892982,88.9284211 C352.203298,95.4514436 353.367259,102.3251 353.333333,109.245088 Z M302.192982,145.145614 C306.704653,145.237212 311.176213,144.28243 315.257018,142.35614 C318.893166,140.57963 322.073957,137.993647 324.555263,134.796667 C327.142845,131.405287 329.03844,127.538274 330.134211,123.415614 C332.579633,114.10164 332.579633,104.314149 330.134211,95.0001754 C329.037303,90.8779411 327.141812,87.0111409 324.555263,83.6191228 C322.073957,80.4221422 318.893166,77.8361592 315.257018,76.0596491 C306.933615,72.3928163 297.45235,72.3928163 289.128947,76.0596491 C285.492083,77.8350385 282.311057,80.4212126 279.830702,83.6191228 C277.24312,87.0105026 275.347525,90.8775159 274.251754,95.0001754 C271.808011,104.314366 271.808011,114.101424 274.251754,123.415614 C275.347525,127.538274 277.24312,131.405287 279.830702,134.796667 C282.311057,137.994577 285.492083,140.580751 289.128947,142.35614 C293.209643,144.282752 297.68128,145.23755 302.192982,145.145614 Z M366.806491,160.125088 L366.806491,58.3650877 L388.192456,58.3650877 L388.192456,107.255263 L423.525789,58.3650877 L448.277719,58.3650877 L410.842982,108.631404 L450.87193,160.125088 L424.409123,160.125088 L388.192456,110.165614 L388.192456,160.125088 L366.806491,160.125088 Z M503.555789,56.5240351 C506.103509,56.5240351 508.700819,56.6511111 511.347719,56.9052632 C513.99462,57.1594152 516.567135,57.5127485 519.065263,57.9652632 C521.544795,58.4177778 523.937544,58.9725731 526.243509,59.6296491 C528.373787,60.2234837 530.446345,61.0076949 532.43614,61.972807 L529.377018,77.6124561 C525.850022,76.3175343 522.220156,75.3221983 518.525965,74.6370175 C514.648549,73.8701921 510.706857,73.4747774 506.754386,73.4561404 C495.143977,73.4561404 486.254854,76.4749708 480.087018,82.5126316 C473.919181,88.5502924 470.838363,97.4518129 470.844561,109.217193 C470.844561,120.994971 473.92538,129.896491 480.087018,135.921754 C486.248655,141.947018 495.137778,144.972047 506.754386,144.996842 C510.702562,144.989867 514.641102,144.606911 518.516667,143.853158 C522.210858,143.167977 525.840724,142.172641 529.367719,140.877719 L532.426842,156.517368 C530.437407,157.483316 528.364772,158.267556 526.234211,158.860526 C523.940643,159.517602 521.547895,160.072398 519.055965,160.524912 C516.564035,160.977427 513.99152,161.33076 511.338421,161.584912 C508.69152,161.832865 506.094211,161.959942 503.546491,161.96614 C495.617245,162.115957 487.730876,160.768965 480.300877,157.995789 C473.929606,155.577043 468.147608,151.826986 463.340877,146.995965 C458.723177,142.255115 455.180799,136.575259 452.954737,130.342807 C450.551338,123.574926 449.361503,116.435917 449.44,109.254386 C449.361503,102.072855 450.551338,94.9338462 452.954737,88.1659649 C455.188604,81.9280984 458.740587,76.2449267 463.368772,71.5035088 C468.176587,66.6738231 473.958278,62.9239648 480.328772,60.5036842 C487.752324,57.7296456 495.632184,56.3795335 503.555789,56.5240351 Z M641.681228,109.245088 C641.729192,116.193504 640.564966,123.09705 638.240877,129.645439 C636.063134,135.822953 632.688587,141.510392 628.310351,146.382281 C623.832027,151.275272 618.360421,155.155485 612.261579,157.763333 C598.287488,163.365011 582.691985,163.365011 568.717895,157.763333 C562.603467,155.144782 557.109658,151.2668 552.594737,146.382281 C548.179786,141.537473 544.80059,135.842198 542.664211,129.645439 C538.183615,116.442891 538.183615,102.130969 542.664211,88.9284211 C544.789044,82.7041397 548.16898,76.9823008 552.594737,72.117193 C557.1115,67.2347766 562.604831,63.3571313 568.717895,60.7361404 C582.691985,55.1344626 598.287488,55.1344626 612.261579,60.7361404 C618.359438,63.3457434 623.830697,67.2257088 628.310351,72.117193 C632.699557,77.0091829 636.074858,82.7231769 638.240877,88.9284211 C640.551193,95.4514436 641.715153,102.3251 641.681228,109.245088 Z M590.494386,145.145614 C595.006056,145.237212 599.477617,144.28243 603.558421,142.35614 C607.19457,140.57963 610.375361,137.993647 612.856667,134.796667 C615.444248,131.405287 617.339843,127.538274 618.435614,123.415614 C620.881037,114.10164 620.881037,104.314149 618.435614,95.0001754 C617.338706,90.8779411 615.443216,87.0111409 612.856667,83.6191228 C610.375361,80.4221422 607.19457,77.8361592 603.558421,76.0596491 C595.235019,72.3928163 585.753753,72.3928163 577.430351,76.0596491 C573.783371,77.8525095 570.598486,80.4615065 568.122807,83.6842105 C565.535225,87.0755903 563.639631,90.9426036 562.54386,95.0652632 C560.100117,104.379454 560.100117,114.166511 562.54386,123.480702 C563.644161,127.590298 565.539563,131.444282 568.122807,134.824561 C570.603162,138.022472 573.784188,140.608646 577.421053,142.384035 C581.506877,144.302442 585.981756,145.247704 590.494386,145.145614 Z M677.284211,160.125088 L655.898246,160.125088 L655.898246,58.3650877 L677.284211,58.3650877 L677.284211,160.125088 Z M764.380877,160.125088 L716.894737,93.5031579 L716.894737,160.125088 L696.438596,160.125088 L696.438596,58.3650877 L716.894737,58.3650877 L764.41807,124.987018 L764.41807,58.3650877 L784.874211,58.3650877 L784.874211,160.125088 L764.380877,160.125088 Z" id="Combined-Shape" fill="#1A1A1A" fill-rule="nonzero"></path>
                </g>
                <rect id="lien" fill-opacity="0.2" fill="#000000" fill-rule="nonzero" x="835" y="46" width="4" height="120"></rect>
            </g>
        </g>
    </g>
</svg>