<?xml version="1.0" encoding="iso-8859-1"?> <!-- Generator: Adobe Illustrator 19.0.0, SVG Export Plug-In . SVG Version: 6.00 Build 0)  --> <svg version="1.1" id="Capa_1" xmlns="http://www.w3.org/2000/svg" xmlns:xlink="http://www.w3.org/1999/xlink" x="0px" y="0px" viewBox="0 0 32 32" style="enable-background:new 0 0 32 32;" xml:space="preserve"> <g> <g> <path d="M5.853,22.202c0.334-0.167,0.982-0.49,0.982-1.641c0-0.826-0.502-2.055-2.467-2.055H0.475v8.013h3.393 c1.641,0,2.076-0.279,2.533-0.728c0.422-0.41,0.69-1.015,0.69-1.648C7.091,23.35,6.835,22.569,5.853,22.202z M2.083,19.893h1.92 c0.758,0,1.227,0.2,1.227,0.858c0,0.638-0.523,0.894-1.184,0.894H2.083V19.893z M4.134,25.135H2.083v-2.143h2.131 c0.604,0,1.205,0.271,1.205,0.971C5.417,24.776,4.948,25.135,4.134,25.135z"/> </g> </g> <g> <g> <polygon points="0.476,27.788 0.476,28.516 1.716,28.516 1.716,31.893 2.571,31.893 2.571,28.516 3.814,28.516 3.814,27.788 		"/> </g> </g> <g> <g> <polygon points="28.066,21.787 31.336,18.505 29.172,18.505 26.114,21.762 26.114,18.505 24.44,18.505 24.44,26.516 26.114,26.516 26.114,23.805 26.895,23.001 29.371,26.516 31.525,26.516 		"/> </g> </g> <g> <g> <path d="M12.361,18.505h-1.93l-2.854,8.012h1.762l0.557-1.65h2.957l0.514,1.649h1.818L12.361,18.505z M10.342,23.481l1.027-3.168 h0.023l0.992,3.168H10.342z"/> </g> </g> <g> <g> <path d="M19.829,2.805c-0.502-0.593-1.055-1.146-1.705-1.625c-0.322-0.242-0.666-0.465-1.043-0.665 C16.701,0.319,16.312,0.13,15.847,0c0.008,0.483,0.092,0.908,0.191,1.324c0.094,0.404,0.221,0.783,0.369,1.147 c-0.354,0.104-0.784,0.25-1.268,0.438c-0.313,0.14-0.656,0.266-1.002,0.453c-0.351,0.168-0.707,0.372-1.068,0.6 c-0.367,0.207-0.709,0.501-1.068,0.755c-0.327,0.311-0.686,0.58-0.977,0.933c-0.301,0.338-0.595,0.676-0.822,1.06 c-0.115,0.187-0.248,0.36-0.344,0.551c-0.092,0.194-0.18,0.387-0.266,0.575C9.397,8.2,9.308,8.592,9.206,8.949 C9.085,9.303,9.042,9.65,9.009,9.97c-0.027,0.319-0.094,0.601-0.078,0.861c0.008,0.256,0.014,0.478,0.02,0.662 c0.011,0.363,0.014,0.57,0.014,0.57s0.039-0.205,0.105-0.562c0.033-0.177,0.074-0.39,0.121-0.636 c0.037-0.245,0.164-0.505,0.252-0.792C9.537,9.786,9.646,9.48,9.826,9.186c0.164-0.299,0.313-0.622,0.555-0.901 c0.109-0.143,0.221-0.291,0.332-0.438c0.117-0.143,0.267-0.266,0.396-0.4c0.254-0.277,0.564-0.501,0.871-0.723 c0.293-0.233,0.65-0.39,0.959-0.581c0.352-0.141,0.662-0.317,1.008-0.419c0.33-0.12,0.655-0.221,0.973-0.293 c0.309-0.09,0.62-0.13,0.891-0.188c0.174-0.025,0.334-0.046,0.488-0.065c-0.018,0.046-0.037,0.09-0.053,0.137 c-0.158,0.433-0.281,0.888-0.367,1.367c-0.039,0.243-0.071,0.489-0.096,0.74c-0.02,0.255-0.024,0.519-0.006,0.797 c0.261-0.1,0.498-0.213,0.723-0.336c0.217-0.127,0.43-0.259,0.633-0.395c0.403-0.277,0.766-0.578,1.094-0.9 c0.664-0.642,1.213-1.359,1.674-2.13L19.96,4.36C20.243,3.881,20.21,3.254,19.829,2.805z"/> </g> </g> <g> <g> <path d="M7.578,30.965c0-0.766-0.184-0.892-0.521-1.04c0.406-0.137,0.635-0.524,0.635-0.979c0-0.354-0.199-1.159-1.291-1.159 H4.325v4.103h0.842v-1.605h0.885c0.635,0,0.67,0.218,0.67,0.776c0,0.422,0.033,0.636,0.09,0.828h0.949v-0.107 C7.578,31.714,7.578,31.564,7.578,30.965z M6.169,29.596H5.166v-1.1h1.068c0.502,0,0.6,0.318,0.6,0.537 C6.833,29.437,6.617,29.596,6.169,29.596z"/> </g> </g> <g> <g> <polygon points="23.339,28.516 23.339,27.788 20.419,27.788 20.419,31.894 21.277,31.894 21.277,30.168 23.083,30.168 23.083,29.442 21.277,29.442 21.277,28.516 		"/> </g> </g> <g> <g> <polygon points="24.755,31.165 24.755,30.105 26.755,30.105 26.755,29.379 24.755,29.379 24.755,28.517 26.934,28.517 26.934,27.79 23.915,27.79 23.915,31.893 27.03,31.893 27.03,31.165 		"/> </g> </g> <g> <g> <path d="M18.691,29.553l-0.998-0.246c-0.172-0.041-0.436-0.11-0.436-0.43c0-0.371,0.391-0.49,0.715-0.49 c0.75,0,0.819,0.433,0.842,0.616h0.82c-0.006-0.503-0.342-1.325-1.6-1.325c-1.332,0-1.577,0.805-1.577,1.262 c0,0.904,0.639,1.055,1.303,1.207l0.439,0.104c0.433,0.105,0.743,0.189,0.743,0.511c0,0.429-0.453,0.529-0.856,0.529 c-0.75,0-0.865-0.434-0.871-0.663h-0.82c0,0.511,0.255,1.372,1.753,1.372c0.358,0,1.617-0.112,1.617-1.343 C19.764,29.92,19.25,29.689,18.691,29.553z"/> </g> </g> <g> <g> <path d="M30.982,30.965c0-0.766-0.186-0.892-0.521-1.04c0.404-0.137,0.637-0.524,0.637-0.979c0-0.354-0.201-1.159-1.293-1.159 h-2.074v4.103h0.842v-1.605h0.885c0.633,0,0.67,0.218,0.67,0.776c0,0.422,0.033,0.636,0.091,0.828h0.946v-0.107 C30.982,31.714,30.982,31.564,30.982,30.965z M29.576,29.596h-1.004v-1.1h1.066c0.504,0,0.602,0.318,0.602,0.537 C30.24,29.437,30.023,29.596,29.576,29.596z"/> </g> </g> <g> <g> <polygon points="21.145,18.508 21.145,24.086 21.124,24.086 17.943,18.508 16.18,18.508 16.18,26.52 17.742,26.52 17.744,20.808 17.765,20.808 21.035,26.521 22.707,26.521 22.707,18.508 		"/> </g> </g> <g> <g> <path d="M10.474,27.788H9.483L8.02,31.891h0.904l0.285-0.847h1.514l0.264,0.847h0.932L10.474,27.788z M9.439,30.336l0.527-1.622 h0.008l0.512,1.622H9.439z"/> </g> </g> <g> <g> <polygon points="14.976,27.788 14.975,30.644 14.965,30.644 13.334,27.788 12.432,27.788 12.432,31.891 13.231,31.891 13.231,28.964 13.244,28.964 14.918,31.891 15.777,31.891 15.777,27.788 		"/> </g> </g> <g> <g> <path d="M21.957,5.66c-0.019-0.362-0.035-0.568-0.035-0.568s-0.029,0.205-0.09,0.564c-0.029,0.177-0.062,0.392-0.101,0.639 c-0.03,0.246-0.149,0.509-0.229,0.799c-0.083,0.29-0.182,0.598-0.354,0.898c-0.154,0.304-0.293,0.63-0.527,0.917 c-0.104,0.147-0.211,0.297-0.317,0.449c-0.115,0.145-0.259,0.273-0.388,0.411c-0.244,0.283-0.547,0.518-0.848,0.748 c-0.283,0.242-0.637,0.408-0.941,0.609c-0.346,0.151-0.651,0.337-0.994,0.448c-0.325,0.131-0.648,0.241-0.964,0.322 c-0.305,0.1-0.613,0.149-0.883,0.214c-0.173,0.031-0.334,0.057-0.486,0.08c0.014-0.047,0.033-0.091,0.049-0.138 c0.144-0.439,0.254-0.897,0.326-1.378c0.031-0.244,0.054-0.491,0.072-0.743c0.013-0.255,0.009-0.52-0.016-0.796 c-0.258,0.106-0.492,0.227-0.713,0.357c-0.215,0.133-0.42,0.271-0.621,0.413c-0.392,0.289-0.746,0.6-1.064,0.933 c-0.644,0.661-1.171,1.394-1.609,2.179l-0.057,0.098c-0.269,0.488-0.217,1.113,0.178,1.551c0.52,0.577,1.09,1.114,1.752,1.573 c0.328,0.233,0.679,0.445,1.064,0.633c0.383,0.186,0.777,0.364,1.248,0.479c-0.025-0.481-0.123-0.903-0.23-1.316 c-0.107-0.401-0.244-0.777-0.404-1.136c0.352-0.115,0.775-0.273,1.254-0.475c0.308-0.148,0.647-0.286,0.988-0.483 c0.344-0.177,0.696-0.392,1.045-0.631c0.36-0.218,0.694-0.522,1.047-0.787c0.317-0.319,0.668-0.601,0.949-0.961 c0.291-0.347,0.573-0.692,0.789-1.083c0.11-0.191,0.235-0.368,0.327-0.562c0.084-0.197,0.168-0.392,0.248-0.583 c0.184-0.37,0.262-0.765,0.354-1.124c0.108-0.356,0.144-0.705,0.166-1.025c0.021-0.319,0.076-0.604,0.054-0.863 C21.979,6.067,21.967,5.844,21.957,5.66z"/> </g> </g> </svg>
