<svg xmlns="http://www.w3.org/2000/svg" viewBox="0 0 209.13 44"><defs><style>.cls-1{font-size:15.19px;font-family:Arial-BoldMT, Arial;font-weight:700;}.cls-2{letter-spacing:-0.04em;}.cls-3{letter-spacing:0em;}.cls-4{letter-spacing:-0.02em;}.cls-5{letter-spacing:0em;}.cls-6{font-size:17.72px;}</style></defs><title>Asset 2</title><g id="Layer_2" data-name="Layer 2"><g id="Layer_1-2" data-name="Layer 1"><text class="cls-1" transform="translate(46.27 16.07)">C<tspan class="cls-2" x="10.97" y="0">R</tspan><tspan class="cls-3" x="21.37" y="0">YP</tspan><tspan class="cls-4" x="41.63" y="0">T</tspan><tspan class="cls-5" x="50.63" y="0">OCURRENCIES</tspan><tspan class="cls-6"><tspan x="0" y="21.26">ADDRESS</tspan></tspan></text><path d="M27.7,26.38a2,2,0,1,0,2,2A2,2,0,0,0,27.7,26.38Zm0,2.64a.66.66,0,1,1,.66-.66A.67.67,0,0,1,27.7,29Z"/><path d="M34.3,18.53V9.89a.67.67,0,0,0-.66-.66H28.16a11.19,11.19,0,0,0-22,0H4a4,4,0,0,0-4,4V35.61a4,4,0,0,0,4,4H33.64a.66.66,0,0,0,.66-.66v-6a3.3,3.3,0,0,0,2.63-3.23V21.76A3.31,3.31,0,0,0,34.3,18.53Zm0,1.37a2,2,0,0,1,1.32,1.86,2.22,2.22,0,0,1,0,.37l0,.11a1.55,1.55,0,0,1-.07.23,1.17,1.17,0,0,1,0,.11,1,1,0,0,1-.12.23.56.56,0,0,0-.05.08,2.75,2.75,0,0,1-.22.26s0,0,0,0a1.3,1.3,0,0,1-.23.18l-.09.07-.21.11-.11.05-.07,0V19.9ZM27.4,15.72c.14-.32.27-.64.38-1a.56.56,0,0,1,0-.12c.1-.31.18-.62.25-.94,0-.06,0-.12.05-.18.07-.34.12-.68.16-1,0-.07,0-.14,0-.21a9.59,9.59,0,0,0,.06-1.07c0-.21,0-.43,0-.66H33v5.28H27.36A.49.49,0,0,1,27.4,15.72ZM17.15,1.32A10,10,0,0,1,27,11.21,8.47,8.47,0,0,1,27,12.34a.34.34,0,0,1,0,.1,9.43,9.43,0,0,1-.2,1.06l0,.14a8.94,8.94,0,0,1-.32,1l-.06.16a10.38,10.38,0,0,1-.43,1,.43.43,0,0,0,0,.07H24.36a8.51,8.51,0,0,0,1.36-4.62H24.4a7.22,7.22,0,0,1-1.67,4.62H20.6a3,3,0,0,0-.6-4,3,3,0,0,0,.45-4.16,2.88,2.88,0,0,0-1.32-.93V5.28H17.81V6.6H16.49V5.28H15.17V6.6H13.85a.66.66,0,0,0-.66.65v8.58H8.41a.16.16,0,0,0,0-.07,10.38,10.38,0,0,1-.43-1l-.06-.16a8.29,8.29,0,0,1-.31-1,.74.74,0,0,1,0-.14c-.08-.35-.15-.7-.2-1.06a.38.38,0,0,0,0-.1c0-.37-.06-.75-.07-1.13A10,10,0,0,1,17.15,1.32Zm1,9.89H14.51V7.91h3.63a1.65,1.65,0,0,1,0,3.3Zm1.65,3a1.65,1.65,0,0,1-1.65,1.65H14.51v-3.3h3.63A1.65,1.65,0,0,1,19.79,14.18ZM4,10.55H6c0,.23,0,.45,0,.66s0,.71,0,1.07a1.49,1.49,0,0,1,0,.21c0,.34.1.68.17,1,0,.06,0,.12,0,.18.07.32.16.63.26.94a.56.56,0,0,0,0,.12c.11.33.24.65.38,1a.49.49,0,0,0,0,.11H4a2.64,2.64,0,0,1,0-5.28Zm29,27.7H4a2.64,2.64,0,0,1-2.64-2.64V16.13a3.9,3.9,0,0,0,2.64,1H33v6.59H27.87a4.75,4.75,0,0,0-4.79,4.48A4.62,4.62,0,0,0,27.56,33H33Zm2.63-8.57a2,2,0,0,1-2,2H27.7a3.3,3.3,0,0,1-3.3-3.3v-.1a3.42,3.42,0,0,1,3.47-3.2h5.77a3.15,3.15,0,0,0,.61-.06l.18-.05a2.22,2.22,0,0,0,.39-.12l.2-.08.34-.19.18-.11.08-.05Z"/><path d="M8.57,11.21H9.89A7.26,7.26,0,0,1,17.15,4V2.64A8.58,8.58,0,0,0,8.57,11.21Z"/><path d="M10.55,18.47v4.34L8.77,24.6a.63.63,0,0,0-.2.46v2.76a2,2,0,1,0,1.32,0V25.33l1.79-1.78a.67.67,0,0,0,.19-.47V18.47ZM9.23,30.34a.66.66,0,1,1,0-1.32.66.66,0,1,1,0,1.32Z"/><path d="M7.25,18.47v1.65L4.88,21.9a.64.64,0,0,0-.26.52v.78a2,2,0,1,0,1.32,0v-.45L8.31,21a.64.64,0,0,0,.26-.52v-2Zm-2,7.25a.66.66,0,0,1,0-1.32.66.66,0,0,1,0,1.32Z"/><path d="M22.31,33.64a2,2,0,0,0-1.21-1.2V27a.66.66,0,0,0-.19-.47l-1.78-1.78V18.47H17.81v6.59a.68.68,0,0,0,.19.47l1.79,1.78v5.13a2,2,0,1,0,2.52,1.2ZM20.45,35a.66.66,0,1,1,.65-.65A.65.65,0,0,1,20.45,35Z"/><path d="M14.51,18.47v7.64l-1.13,1.12a.7.7,0,0,0-.19.47V33h1.32V28l1.13-1.12a.68.68,0,0,0,.19-.47V18.47Z"/><rect x="22.42" y="18.47" width="1.32" height="2.64"/><path d="M28.73,20.56,27,19.43v-1H25.72v1.32a.65.65,0,0,0,.29.54l1.69,1.13v1H29V21.1A.65.65,0,0,0,28.73,20.56Z"/><rect x="22.42" y="22.42" width="1.32" height="1.32"/><path d="M4.62,0H3.3A2.64,2.64,0,0,1,.66,2.64V4A2.64,2.64,0,0,1,3.3,6.6H4.62A2.64,2.64,0,0,1,7.25,4V2.64A2.64,2.64,0,0,1,4.62,0ZM4,4.42A3.86,3.86,0,0,0,2.84,3.3,4.12,4.12,0,0,0,4,2.18,4.08,4.08,0,0,0,5.07,3.3,3.82,3.82,0,0,0,4,4.42Z"/></g></g></svg>