<svg xmlns="http://www.w3.org/2000/svg" viewBox="0 0 478.94 116.95"><defs><style>.cls-1{fill:#253b80;}.cls-2{fill:#179bd7;}.cls-3{fill:#222d65;}</style></defs><title>Asset 1</title><g id="Layer_2" data-name="Layer 2"><g id="Layer_1-2" data-name="Layer 1"><path class="cls-1" d="M179.09,26.16H152.58a3.69,3.69,0,0,0-3.64,3.1l-10.72,68a2.21,2.21,0,0,0,2.19,2.55h12.65a3.68,3.68,0,0,0,3.64-3.12l2.89-18.33a3.69,3.69,0,0,1,3.64-3.11h8.39c17.46,0,27.53-8.45,30.16-25.19,1.19-7.32.05-13.08-3.38-17.11C194.64,28.5,188,26.16,179.09,26.16Zm3,24.82c-1.45,9.51-8.71,9.51-15.74,9.51h-4l2.81-17.76a2.2,2.2,0,0,1,2.18-1.87h1.83c4.79,0,9.3,0,11.64,2.73C182.25,45.22,182.67,47.64,182.14,51Z"/><path class="cls-1" d="M258.31,50.67H245.62a2.2,2.2,0,0,0-2.18,1.86l-.57,3.55L242,54.8c-2.75-4-8.88-5.32-15-5.32-14,0-26,10.62-28.34,25.52-1.21,7.43.51,14.54,4.73,19.5,3.87,4.56,9.4,6.45,16,6.45a24.3,24.3,0,0,0,17.57-7.26l-.56,3.52a2.2,2.2,0,0,0,2.17,2.56H250a3.69,3.69,0,0,0,3.64-3.11l6.85-43.44A2.19,2.19,0,0,0,258.31,50.67Zm-17.69,24.7A14.15,14.15,0,0,1,226.3,87.49c-3.69,0-6.63-1.18-8.52-3.42a10.77,10.77,0,0,1-2-8.92A14.19,14.19,0,0,1,230,62.94c3.6,0,6.53,1.19,8.46,3.45A11,11,0,0,1,240.62,75.37Z"/><path class="cls-1" d="M325.9,50.67H313.15a3.7,3.7,0,0,0-3,1.62L292.51,78.2l-7.46-24.9a3.68,3.68,0,0,0-3.53-2.63H269a2.21,2.21,0,0,0-2.1,2.92l14.05,41.23-13.21,18.64a2.21,2.21,0,0,0,1.8,3.49h12.74a3.69,3.69,0,0,0,3-1.58l42.42-61.23A2.21,2.21,0,0,0,325.9,50.67Z"/><path class="cls-2" d="M368.13,26.16H341.62a3.67,3.67,0,0,0-3.63,3.1l-10.72,68a2.2,2.2,0,0,0,2.18,2.55h13.6a2.59,2.59,0,0,0,2.54-2.18l3-19.27a3.69,3.69,0,0,1,3.64-3.11h8.39c17.46,0,27.53-8.45,30.17-25.19,1.19-7.32,0-13.08-3.39-17.11C383.68,28.5,377,26.16,368.13,26.16ZM371.19,51c-1.45,9.51-8.71,9.51-15.74,9.51h-4l2.81-17.76a2.2,2.2,0,0,1,2.18-1.87h1.83c4.78,0,9.3,0,11.64,2.73C371.3,45.22,371.72,47.64,371.19,51Z"/><path class="cls-2" d="M447.35,50.67H434.67a2.2,2.2,0,0,0-2.18,1.86l-.56,3.55L431,54.8c-2.75-4-8.87-5.32-15-5.32-14,0-26,10.62-28.33,25.52-1.21,7.43.51,14.54,4.72,19.5,3.88,4.56,9.4,6.45,16,6.45A24.27,24.27,0,0,0,426,93.69l-.56,3.52a2.21,2.21,0,0,0,2.18,2.56H439a3.69,3.69,0,0,0,3.64-3.11l6.86-43.44A2.21,2.21,0,0,0,447.35,50.67Zm-17.69,24.7a14.14,14.14,0,0,1-14.32,12.12c-3.68,0-6.63-1.18-8.52-3.42s-2.58-5.39-2-8.92a14.2,14.2,0,0,1,14.22-12.21c3.6,0,6.53,1.19,8.46,3.45A10.92,10.92,0,0,1,429.66,75.37Z"/><path class="cls-2" d="M462.31,28,451.44,97.23a2.2,2.2,0,0,0,2.17,2.55h10.94a3.68,3.68,0,0,0,3.64-3.12l10.73-67.95a2.21,2.21,0,0,0-2.18-2.56H464.49A2.23,2.23,0,0,0,462.31,28Z"/><path class="cls-1" d="M28.16,113l2-12.87L25.67,100H4.11l15-95a1.29,1.29,0,0,1,.42-.75,1.23,1.23,0,0,1,.8-.29H56.66c12.07,0,20.4,2.51,24.75,7.47a17.07,17.07,0,0,1,4,7.43,26.82,26.82,0,0,1,0,10.24l-.05.3V32l2,1.15a14.56,14.56,0,0,1,4.13,3.15,14.74,14.74,0,0,1,3.35,7.51,31.75,31.75,0,0,1-.48,10.9,38.29,38.29,0,0,1-4.47,12.34,25.32,25.32,0,0,1-7.07,7.75,28.8,28.8,0,0,1-9.52,4.29A47.28,47.28,0,0,1,61.42,80.5H58.59a8.49,8.49,0,0,0-8.41,7.18L50,88.84l-3.59,22.69-.16.83a.7.7,0,0,1-.22.49.62.62,0,0,1-.38.13Z"/><path class="cls-2" d="M89.32,29.71h0c-.11.7-.23,1.41-.37,2.13C84.15,56.46,67.75,65,46.81,65H36.14A5.18,5.18,0,0,0,31,69.35h0L25.56,104,24,113.79A2.73,2.73,0,0,0,26.71,117H45.62a4.56,4.56,0,0,0,4.5-3.84l.19-1,3.56-22.6.23-1.24a4.55,4.55,0,0,1,4.49-3.85h2.83c18.33,0,32.67-7.44,36.87-29,1.75-9,.84-16.5-3.79-21.79A18.35,18.35,0,0,0,89.32,29.71Z"/><path class="cls-3" d="M84.31,27.71c-.74-.21-1.49-.4-2.27-.58s-1.58-.32-2.4-.45a58.53,58.53,0,0,0-9.4-.69H41.75a4.55,4.55,0,0,0-4.49,3.85L31.2,68.23,31,69.35A5.18,5.18,0,0,1,36.14,65H46.81C67.75,65,84.15,56.45,89,31.84c.14-.72.26-1.43.37-2.13a26,26,0,0,0-3.94-1.66Z"/><path class="cls-1" d="M37.26,29.84a4.52,4.52,0,0,1,2.52-3.4,4.69,4.69,0,0,1,2-.44H70.24a59.75,59.75,0,0,1,9.4.68c.82.13,1.62.28,2.4.46s1.53.36,2.27.58l1.07.33a25.61,25.61,0,0,1,3.94,1.66c1.43-9.09,0-15.29-4.93-20.89C79,2.64,69.19,0,56.67,0H20.31a5.2,5.2,0,0,0-5.13,4.39L0,100.36A3.13,3.13,0,0,0,3.12,104H25.56L31.2,68.23Z"/></g></g></svg>