<?xml version="1.0" ?><!DOCTYPE svg  PUBLIC '-//W3C//DTD SVG 1.1//EN'  'http://www.w3.org/Graphics/SVG/1.1/DTD/svg11.dtd'><svg enable-background="new 0 0 64 64" height="64px" id="Layer_1" version="1.1" viewBox="0 0 64 64" width="64px" xml:space="preserve" xmlns="http://www.w3.org/2000/svg" xmlns:xlink="http://www.w3.org/1999/xlink"><g><g><path d="M9.5,9.6C4.7,9.6,1,12.7,1,18.1v15.4c0.4,1.9,2.4,3.3,4.6,3.3c2.5,0,4.3-1.8,4.3-4V25h6.8v7.7    c0,4.3-5.5,6.5-9.5,6.5c-2.3,0-4.5-0.7-6.1-1.9v17h10.8c3.8,0,8.2-3.6,8.2-8.2V9.6H9.5z" fill="#1174CE"/></g><g><path d="M1,18.1v15.4c0.4,1.9,2.4,3.3,4.6,3.3c2.5,0,4.3-1.8,4.3-4V25h6.8v7.7c0,4.3-5.5,6.5-9.5,6.5    c-2.3,0-4.5-0.7-6.1-1.9v17h10.8c3.8,0,8.2-3.6,8.2-8.2V9.6" fill="#0F549D"/></g><g><path d="M16.6,25v7.7c0,4.3-5.5,6.5-9.5,6.5c-2.3,0-4.5-0.7-6.1-1.9v17h10.8c3.8,0,8.2-3.6,8.2-8.2" fill="#02375E"/></g><g><g><path d="M47.3,36.6h4.7c1.2,0,2.3-1.1,2.3-2.3s-1.1-2.3-2.3-2.3h-4.7V36.6z" fill="#146643"/></g><g><path d="M52.6,9.6c-4.9,0-8.5,3.1-8.5,8.4V25h12.6c1.8,0,3.3,1.5,3.3,3.3s-1.5,3.3-3.3,3.3c2,0,3.6,1.4,3.6,3.2     c0,1.8-1.5,3.2-3.6,3.2H44v16.3h10.8c3.8,0,8.2-3.6,8.2-8.2V9.6H52.6z" fill="#1BCC38"/></g><g><path d="M44,18.1V25h12.6c1.8,0,3.3,1.5,3.3,3.3s-1.5,3.3-3.3,3.3c2,0,3.6,1.4,3.6,3.2c0,1.8-1.5,3.2-3.6,3.2H44     v16.3h10.8c3.8,0,8.2-3.6,8.2-8.2V9.6" fill="#329947"/></g><g><path d="M59.9,28.3c0,1.8-1.5,3.3-3.3,3.3c2,0,3.6,1.4,3.6,3.2c0,1.8-1.5,3.2-3.6,3.2H44v16.3h10.8     c3.8,0,8.2-3.6,8.2-8.2" fill="#146643"/></g><g><path d="M54.2,28.7c0-1.2-1.1-2.3-2.3-2.3h-4.6v4.5H52C53.2,30.9,54.2,29.9,54.2,28.7z" fill="#146643"/></g></g><g><path d="M30.9,9.6c-4.9,0-8.5,3.1-8.5,8.4v8.6c1.2-1,2.7-1.7,4.3-1.7h11.4v2.4c-2.7-0.6-5.3-0.9-6.6-0.9    c-2.8,0-5.1,2.3-5.1,5.1c0,2.8,2.3,5.1,5.1,5.1c1.3,0,3.9-0.2,6.6-0.8V38H26.7c-1.6,0-3.2-0.6-4.3-1.7v18h10.8    c3.8,0,8.2-3.6,8.2-8.2V9.6H30.9z" fill="#E20E37"/></g><g><path d="M22.4,18.1v8.6c1.2-1,2.7-1.7,4.3-1.7h11.4v2.4c-2.7-0.6-5.3-0.9-6.6-0.9c-2.8,0-5.1,2.3-5.1,5.1    c0,2.8,2.3,5.1,5.1,5.1c1.3,0,3.9-0.2,6.6-0.8V38H26.7c-1.6,0-3.2-0.6-4.3-1.7v18h10.8c3.8,0,8.2-3.6,8.2-8.2V9.6" fill="#B41F36"/></g><g><path d="M38.1,25v2.4c-2.7-0.6-5.3-0.9-6.6-0.9c-2.8,0-5.1,2.3-5.1,5.1c0,2.8,2.3,5.1,5.1,5.1    c1.3,0,3.9-0.2,6.6-0.8V38H26.7c-1.6,0-3.2-0.6-4.3-1.7v18h10.8c3.8,0,8.2-3.6,8.2-8.2" fill="#720A1E"/></g></g></svg>