<svg xmlns="http://www.w3.org/2000/svg" width="101" height="28" viewBox="0 0 101 28" class="product-logo">
  <g fill="#252525" fill-rule="nonzero">
    <path d="M38.023 7.579v.028C39.517 5.993 41.471 5 44 5v4.097c-2.644.124-4.598 1.117-5.977 2.979V23H34V11.596l4.023-4.017zm20.842-2.214H63v17.27h-4.135V21.42A9.179 9.179 0 0 1 53.635 23C48.77 23 45 18.986 45 14s3.892-9 8.635-9c2.068 0 3.892.608 5.23 1.581V5.365zM54.25 20c1.875 0 3.5-.625 4.75-2.5v-6C57.75 9.625 56 9 54.25 9c-3 0-5.25 2.625-5.25 5.5 0 3 2.125 5.5 5.25 5.5zM84 5l-7.67 17h-3.66L65 5h4.366l5.193 11.732L79.752 5H84zm10.704 14.266L90.784 23C86.681 22.085 84 18.53 84 14.175 84 8.863 87.517 5 92.793 5c4.69 0 8.09 3.501 8.207 8.813 0 .603 0 .966-.117 1.328H87.986c.352 2.414 1.993 4.346 5.042 4.346.63 0 1.19-.071 1.676-.22zM92.8 9c-2.76 0-4.32 1.647-4.8 4h9c-.24-2.47-1.68-4-4.2-4zM19.387 11.913C23.032 8.95 30.53-1.647 18.814.22 13.71.988 6.212 5.874 4.702 11.474a44.825 44.825 0 0 0-2.604-4.337C.692 5.215-.922 6.697.64 8.674 5.066 14.33 8.14 21.137 8.14 28c.364-3.404-.209-7.577-1.562-11.64.677.22 1.406.33 2.082.33 2.396 3.843 6.041 7.137 10.155 8.675 3.749 1.482 8.748.604 6.717-5.326-1.093-3.24-3.645-6.094-6.144-8.126zm.876-9.867c6.58-.732-.473 7.434-2.79 8.954C15.317 9.592 12.633 8.353 10 8.691c1.895-2.421 6.474-6.194 10.263-6.645zM9.572 10.018c1.864-.16 3.893.798 5.428 1.757A13.4 13.4 0 0 1 10.175 13c-2.522 0-3.016-2.77-.603-2.982zm9.308 12.77c-3.02-.884-5.833-3.316-7.88-5.803 1.689-.332 3.326-.995 4.86-1.935.564-.276 1.127-.663 1.638-1.05 1.791 1.658 3.633 3.87 4.35 6.357.716 2.708-1.229 2.93-2.968 2.432z"></path>
  </g>
</svg>
