<svg id="222ddc80-d956-4da5-aae9-0ef90f450557" data-name="Layer 1" xmlns="http://www.w3.org/2000/svg" viewBox="0 0 512 512"><defs><style>.\37 ff01b93-c4ff-4bd3-b158-2caeb834aa83{fill:#f0f0f0;}.\38 12b8643-b1d7-49c2-be10-f4e64ed340bf{fill:#0052b4;}.\38 d83e6b9-42e4-4bca-b2bb-ebd74333d0b9{fill:#d80027;}</style></defs><title>en</title><circle class="7ff01b93-c4ff-4bd3-b158-2caeb834aa83" cx="256" cy="256" r="256"/><path class="812b8643-b1d7-49c2-be10-f4e64ed340bf" d="M52.92,100.14a255.13,255.13,0,0,0-44.1,89.08H142Z"/><path class="812b8643-b1d7-49c2-be10-f4e64ed340bf" d="M503.18,189.22a255.13,255.13,0,0,0-44.1-89.08L370,189.22Z"/><path class="812b8643-b1d7-49c2-be10-f4e64ed340bf" d="M8.82,322.78a255,255,0,0,0,44.1,89.08L142,322.78Z"/><path class="812b8643-b1d7-49c2-be10-f4e64ed340bf" d="M411.86,52.92a255,255,0,0,0-89.08-44.1V142Z"/><path class="812b8643-b1d7-49c2-be10-f4e64ed340bf" d="M100.14,459.08a255.13,255.13,0,0,0,89.08,44.1V370Z"/><path class="812b8643-b1d7-49c2-be10-f4e64ed340bf" d="M189.22,8.82a255,255,0,0,0-89.08,44.1L189.22,142Z"/><path class="812b8643-b1d7-49c2-be10-f4e64ed340bf" d="M322.78,503.18a255,255,0,0,0,89.08-44.1L322.78,370V503.18Z"/><path class="812b8643-b1d7-49c2-be10-f4e64ed340bf" d="M370,322.78l89.07,89.08a255,255,0,0,0,44.1-89.08Z"/><path class="8d83e6b9-42e4-4bca-b2bb-ebd74333d0b9" d="M509.83,222.61H289.39V2.17a258,258,0,0,0-66.78,0V222.61H2.17a258,258,0,0,0,0,66.78H222.61V509.83a258,258,0,0,0,66.78,0V289.39H509.83a258,258,0,0,0,0-66.78Z"/><path class="8d83e6b9-42e4-4bca-b2bb-ebd74333d0b9" d="M322.78,322.78h0L437,437q7.88-7.87,15.05-16.44l-97.8-97.8Z"/><path class="8d83e6b9-42e4-4bca-b2bb-ebd74333d0b9" d="M189.22,322.78h0L75,437q7.88,7.88,16.44,15.05l97.8-97.81V322.78Z"/><path class="8d83e6b9-42e4-4bca-b2bb-ebd74333d0b9" d="M189.22,189.22h0L75,75q-7.87,7.88-15.05,16.44l97.81,97.8Z"/><path class="8d83e6b9-42e4-4bca-b2bb-ebd74333d0b9" d="M322.78,189.22h0L437,75q-7.87-7.87-16.44-15.05l-97.8,97.81Z"/></svg>