<svg version="1.1" xmlns="http://www.w3.org/2000/svg" xmlns:xlink="http://www.w3.org/1999/xlink" xmlns:a="http://ns.adobe.com/AdobeSVGViewerExtensions/3.0/" x="0px" y="0px" width="126.2px" height="84.1px" viewBox="0 0 126.2 84.1" style="enable-background:new 0 0 126.2 84.1;" xml:space="preserve"> <defs> </defs> <path d="M7,56.1c-3.9,0-7,3.1-7,7v14c0,3.9,3.1,7,7,7s7-3.1,7-7v-14C14,59.2,10.9,56.1,7,56.1z M35,42c-3.9,0-7,3.1-7,7v28 c0,3.9,3.1,7,7,7s7-3.1,7-7v-28C42.1,45.2,38.9,42,35,42z M63.1,28c-3.9,0-7,3.1-7,7v42.1c0,3.9,3.1,7,7,7c3.9,0,7-3.1,7-7V35 C70.1,31.2,66.9,28,63.1,28z M91.1,14c-3.9,0-7,3.1-7,7v56.1c0,3.9,3.1,7,7,7c3.9,0,7-3.1,7-7V21C98.1,17.2,95,14,91.1,14z M119.1,0 c-3.9,0-7,3.1-7,7v70.1c0,3.9,3.1,7,7,7s7-3.1,7-7V7C126.2,3.1,123,0,119.1,0z"/> </svg>
