<svg version="1.1" xmlns="http://www.w3.org/2000/svg" xmlns:xlink="http://www.w3.org/1999/xlink" xmlns:a="http://ns.adobe.com/AdobeSVGViewerExtensions/3.0/" x="0px" y="0px" width="126.2px" height="84.1px" viewBox="0 0 126.2 84.1" style="enable-background:new 0 0 126.2 84.1;" xml:space="preserve"> <defs> </defs> <g> <path d="M63.1,28c-0.2,0-0.5,0-0.7,0c3.3,5,5.2,11,5.2,17.5c0,9.9-4.4,18.7-11.4,24.6v7c0,3.9,3.1,7,7,7c3.9,0,7-3.1,7-7V35 C70.1,31.2,66.9,28,63.1,28z"/> <path d="M91.1,14c-3.9,0-7,3.1-7,7v56.1c0,3.9,3.1,7,7,7c3.9,0,7-3.1,7-7V21C98.1,17.2,95,14,91.1,14z"/> <path d="M28,76.9v0.2c0,3.9,3.1,7,7,7c3.9,0,7-3.1,7-7V77c-2.2,0.5-4.4,0.7-6.7,0.7C32.8,77.7,30.4,77.4,28,76.9z"/> <path d="M119.1,0c-3.9,0-7,3.1-7,7v70.1c0,3.9,3.1,7,7,7s7-3.1,7-7V7C126.2,3.1,123,0,119.1,0z"/> <path d="M5,56.4c-2.9,0.9-5,3.5-5,6.7v14c0,3.9,3.1,7,7,7c3.9,0,7-3.1,7-7v-7.4C10,66.1,6.9,61.5,5,56.4z"/> </g> <g> <g id="Layer_2_2_"> <g> <path d="M42.2,69.3c-0.5,0.1-1,0.2-1.5,0.3c-1.3,0.2-2.1,1.5-1.9,2.8c0.1,0.6,0.5,1.2,1,1.5c0.5,0.4,1.1,0.5,1.8,0.4 c0.6-0.1,1.2-0.2,1.8-0.4c1.3-0.3,2.1-1.6,1.7-2.9C44.7,69.7,43.4,68.9,42.2,69.3z"/> <path d="M59.7,37.4c0.2,0.5,0.5,0.9,0.9,1.2c0.6,0.4,1.4,0.6,2.1,0.3c1.2-0.4,1.9-1.8,1.5-3c-0.2-0.6-0.4-1.1-0.6-1.7 c-0.5-1.2-1.9-1.8-3.1-1.3c-1.2,0.5-1.8,1.9-1.3,3.1C59.4,36.4,59.6,36.9,59.7,37.4z"/> <path d="M49.9,65.9c-0.4,0.3-0.9,0.5-1.3,0.8c-1.1,0.7-1.5,2.1-0.9,3.2c0.2,0.3,0.4,0.6,0.7,0.8c0.7,0.5,1.7,0.6,2.6,0.1 c0.5-0.3,1-0.6,1.5-0.9c1.1-0.7,1.4-2.2,0.7-3.3C52.5,65.4,51,65.1,49.9,65.9z"/> <path d="M65.7,44c-0.1-1.3-1.2-2.3-2.5-2.3c-1.3,0.1-2.3,1.2-2.3,2.5c0,0.5,0,1,0,1.5c0,0.8,0.4,1.6,1,2c0.4,0.3,0.8,0.4,1.3,0.4 c1.3,0,2.4-1,2.4-2.3C65.8,45.2,65.8,44.6,65.7,44z"/> <path d="M59.4,59.6c-1.1-0.8-2.5-0.6-3.3,0.5c-0.3,0.4-0.6,0.8-0.9,1.2c-0.9,1-0.7,2.5,0.3,3.4c0.1,0,0.1,0.1,0.2,0.1 c1,0.7,2.4,0.5,3.2-0.4c0.4-0.5,0.8-0.9,1.1-1.4C60.6,61.9,60.4,60.4,59.4,59.6z"/> <path d="M62.9,51c-1.3-0.4-2.6,0.3-3,1.6c-0.2,0.5-0.3,1-0.5,1.4c-0.4,1,0,2.2,0.9,2.8c0.2,0.1,0.3,0.2,0.5,0.3 c1.2,0.5,2.6-0.1,3.1-1.4c0.2-0.6,0.4-1.1,0.6-1.7C64.8,52.7,64.1,51.4,62.9,51z"/> <path d="M31.8,69.6c-2.1-0.4-4.2-1-6.1-1.9c0,0,0,0-0.1,0c-0.5-0.2-0.9-0.4-1.4-0.7c0,0,0,0,0,0c-0.8-0.4-1.6-0.9-2.4-1.5 c-11.2-7.9-13.9-23.4-6-34.6c1.7-2.4,3.8-4.5,6.1-6.1c0,0,0.1,0,0.1-0.1c8.1-5.6,19.2-6,27.9-0.2l-1.9,2.7 c-0.5,0.7-0.2,1.3,0.7,1.2l8.1-0.7c0.9-0.1,1.4-0.9,1.2-1.7l-2.2-7.8c-0.2-0.9-0.9-1-1.4-0.2l-1.9,2.7c-6.3-4.3-14-5.9-21.5-4.6 c-0.8,0.1-1.5,0.3-2.3,0.5c0,0,0,0,0,0c0,0-0.1,0-0.1,0c-6.5,1.7-12.2,5.5-16.3,10.9c0,0-0.1,0.1-0.1,0.1 c-0.1,0.2-0.3,0.4-0.4,0.6c-0.2,0.3-0.4,0.6-0.6,0.9c0,0,0,0.1-0.1,0.1c-3.3,5.2-5,11.2-4.7,17.3c0,0,0,0,0,0.1 c0,0.6,0.1,1.2,0.1,1.8c0,0,0,0.1,0,0.1C6.9,49,7,49.6,7.1,50.2c1.1,6.1,3.9,11.6,8.3,15.9c0,0,0,0,0,0c0,0,0,0,0,0 c1.2,1.1,2.4,2.2,3.8,3.2c3.6,2.5,7.5,4.2,11.8,4.9c1.3,0.2,2.5-0.6,2.8-1.9C33.9,71.1,33.1,69.8,31.8,69.6z"/> <path d="M34.7,26c-1.1,0-1.9,0.9-1.9,1.9v19.2l17.5,9.1c0.3,0.1,0.6,0.2,0.9,0.2c0.7,0,1.4-0.4,1.7-1c0.5-0.9,0.1-2.1-0.8-2.6 l-15.4-8V27.9C36.7,26.8,35.8,26,34.7,26z"/> </g> </g> </g> </svg>
