<svg version="1.1" xmlns="http://www.w3.org/2000/svg" xmlns:xlink="http://www.w3.org/1999/xlink" xmlns:a="http://ns.adobe.com/AdobeSVGViewerExtensions/3.0/" x="0px" y="0px" width="126.2px" height="84.1px" viewBox="0 0 126.2 84.1" style="enable-background:new 0 0 126.2 84.1;" xml:space="preserve"> <defs> </defs> <path d="M112.1,63.1v14c0,3.9,3.1,7,7,7c3.9,0,7-3.1,7-7v-14c0-3.9-3.1-7-7-7C115.3,56.1,112.1,59.2,112.1,63.1z M84.1,49.1l0,28 c0,3.9,3.1,7,7,7c3.9,0,7-3.1,7-7l0-28c0-3.9-3.1-7-7-7C87.2,42,84.1,45.2,84.1,49.1z M56.1,35v42.1c0,3.9,3.1,7,7,7 c3.9,0,7-3.1,7-7V35c0-3.9-3.1-7-7-7C59.2,28,56.1,31.2,56.1,35z M28,21v56.1c0,3.9,3.1,7,7,7c3.9,0,7-3.1,7-7V21c0-3.9-3.1-7-7-7 C31.2,14,28,17.2,28,21z M0,7l0,70.1c0,3.9,3.1,7,7,7s7-3.1,7-7V7c0-3.9-3.1-7-7-7C3.1,0,0,3.1,0,7z"/> </svg>
