<svg version="1.1" xmlns="http://www.w3.org/2000/svg" xmlns:xlink="http://www.w3.org/1999/xlink" xmlns:a="http://ns.adobe.com/AdobeSVGViewerExtensions/3.0/" x="0px" y="0px" width="126.2px" height="84.1px" viewBox="0 0 126.2 84.1" style="enable-background:new 0 0 126.2 84.1;" xml:space="preserve"> <defs> </defs> <g> <path d="M7,0C3.1,0,0,3.1,0,7v70.1c0,3.9,3.1,7,7,7s7-3.1,7-7V7C14,3.1,10.9,0,7,0z"/> <path d="M121.6,56.5c-1.9,5.3-5.2,10-9.4,13.6v7c0,3.9,3.1,7,7,7c3.9,0,7-3.1,7-7v-14C126.2,60.1,124.2,57.5,121.6,56.5z"/> <path d="M84.1,76.9v0.2c0,3.9,3.1,7,7,7c3.9,0,7-3.1,7-7V77c-2.2,0.5-4.5,0.7-6.8,0.7C88.8,77.7,86.4,77.4,84.1,76.9z"/> <path d="M35,14c-3.9,0-7,3.1-7,7v56.1c0,3.9,3.1,7,7,7c3.9,0,7-3.1,7-7V21C42.1,17.2,38.9,14,35,14z"/> <path d="M59.1,45.5c0-6.4,1.9-12.4,5.1-17.4c-0.4-0.1-0.8-0.1-1.2-0.1c-3.9,0-7,3.1-7,7v42.1c0,3.9,3.1,7,7,7c3.9,0,7-3.1,7-7v-7.4 C63.4,63.8,59.1,55.2,59.1,45.5z"/> </g> <g> <g id="Layer_2_2_"> <g> <path d="M98.2,69.3c-0.5,0.1-1,0.2-1.5,0.3c-1.3,0.2-2.1,1.5-1.9,2.8c0.1,0.6,0.5,1.2,1,1.5c0.5,0.4,1.1,0.5,1.8,0.4 c0.6-0.1,1.2-0.2,1.8-0.4c1.3-0.3,2.1-1.6,1.7-2.9C100.7,69.7,99.4,68.9,98.2,69.3z"/> <path d="M115.7,37.4c0.2,0.5,0.5,0.9,0.9,1.2c0.6,0.4,1.4,0.6,2.1,0.3c1.2-0.4,1.9-1.8,1.5-3c-0.2-0.6-0.4-1.1-0.6-1.7 c-0.5-1.2-1.9-1.8-3.1-1.3c-1.2,0.5-1.8,1.9-1.3,3.1C115.4,36.4,115.6,36.9,115.7,37.4z"/> <path d="M105.9,65.9c-0.4,0.3-0.9,0.5-1.3,0.8c-1.1,0.7-1.5,2.1-0.9,3.2c0.2,0.3,0.4,0.6,0.7,0.8c0.7,0.5,1.7,0.6,2.6,0.1 c0.5-0.3,1-0.6,1.5-0.9c1.1-0.7,1.4-2.2,0.7-3.3C108.5,65.4,107,65.1,105.9,65.9z"/> <path d="M121.7,44c-0.1-1.3-1.2-2.3-2.5-2.3c-1.3,0.1-2.3,1.2-2.3,2.5c0,0.5,0,1,0,1.5c0,0.8,0.4,1.6,1,2 c0.4,0.3,0.8,0.4,1.3,0.4c1.3,0,2.4-1,2.4-2.3C121.8,45.2,121.8,44.6,121.7,44z"/> <path d="M115.4,59.6c-1.1-0.8-2.5-0.6-3.3,0.5c-0.3,0.4-0.6,0.8-0.9,1.2c-0.9,1-0.7,2.5,0.3,3.4c0.1,0,0.1,0.1,0.2,0.1 c1,0.7,2.4,0.5,3.2-0.4c0.4-0.5,0.8-0.9,1.1-1.4C116.6,61.9,116.4,60.4,115.4,59.6z"/> <path d="M118.9,51c-1.3-0.4-2.6,0.3-3,1.6c-0.2,0.5-0.3,1-0.5,1.4c-0.4,1,0,2.2,0.9,2.8c0.2,0.1,0.3,0.2,0.5,0.3 c1.2,0.5,2.6-0.1,3.1-1.4c0.2-0.6,0.4-1.1,0.6-1.7C120.8,52.7,120.1,51.4,118.9,51z"/> <path d="M87.8,69.6c-2.1-0.4-4.2-1-6.1-1.9c0,0,0,0-0.1,0c-0.5-0.2-0.9-0.4-1.4-0.7c0,0,0,0,0,0c-0.8-0.4-1.6-0.9-2.4-1.5 c-11.2-7.9-13.9-23.4-6-34.6c1.7-2.4,3.8-4.5,6.1-6.1c0,0,0.1,0,0.1-0.1c8.1-5.6,19.2-6,27.9-0.2l-1.9,2.7 c-0.5,0.7-0.2,1.3,0.7,1.2l8.1-0.7c0.9-0.1,1.4-0.9,1.2-1.7l-2.2-7.8c-0.2-0.9-0.9-1-1.4-0.2l-1.9,2.7c-6.3-4.3-14-5.9-21.5-4.6 c-0.8,0.1-1.5,0.3-2.3,0.5c0,0,0,0,0,0c0,0-0.1,0-0.1,0c-6.5,1.7-12.2,5.5-16.3,10.9c0,0-0.1,0.1-0.1,0.1 c-0.1,0.2-0.3,0.4-0.4,0.6c-0.2,0.3-0.4,0.6-0.6,0.9c0,0,0,0.1-0.1,0.1c-3.3,5.2-5,11.2-4.7,17.3c0,0,0,0,0,0.1 c0,0.6,0.1,1.2,0.1,1.8c0,0,0,0.1,0,0.1c0.1,0.6,0.1,1.2,0.3,1.8c1.1,6.1,3.9,11.6,8.3,15.9c0,0,0,0,0,0c0,0,0,0,0,0 c1.2,1.1,2.4,2.2,3.8,3.2c3.6,2.5,7.5,4.2,11.8,4.9c1.3,0.2,2.5-0.6,2.8-1.9C89.9,71.1,89.1,69.8,87.8,69.6z"/> <path d="M90.7,26c-1.1,0-1.9,0.9-1.9,1.9v19.2l17.5,9.1c0.3,0.1,0.6,0.2,0.9,0.2c0.7,0,1.4-0.4,1.7-1c0.5-0.9,0.1-2.1-0.8-2.6 l-15.4-8V27.9C92.7,26.8,91.8,26,90.7,26z"/> </g> </g> </g> </svg>
