<svg version="1.1" id="Capa_1" xmlns="http://www.w3.org/2000/svg" xmlns:xlink="http://www.w3.org/1999/xlink" x="0px" y="0px"
	 viewBox="0 0 480 480" style="enable-background:new 0 0 480 480;" xml:space="preserve">
<g>
	<g>
		<path d="M76.001,72c-13.255,0-24-10.745-24-24c0-4.418-3.582-8-8-8s-8,3.582-8,8c0,13.255-10.745,24-24,24c-4.418,0-8,3.582-8,8
			s3.582,8,8,8c13.255,0,24,10.745,24,24c0,4.418,3.582,8,8,8s8-3.582,8-8c0-13.255,10.745-24,24-24c4.418,0,8-3.582,8-8
			S80.419,72,76.001,72z M44.001,88c-2.276-3.031-4.969-5.724-8-8c3.031-2.276,5.724-4.969,8-8c2.276,3.031,4.969,5.724,8,8
			C48.97,82.276,46.276,84.969,44.001,88z"/>
	</g>
</g>
<g>
	<g>
		<rect x="116.001" width="16" height="16"/>
	</g>
</g>
<g>
	<g>
		<rect x="116.001" y="32" width="16" height="16"/>
	</g>
</g>
<g>
	<g>
		<rect x="100.001" y="16" width="16" height="16"/>
	</g>
</g>
<g>
	<g>
		<rect x="132.001" y="16" width="16" height="16"/>
	</g>
</g>
<g>
	<g>
		<path d="M473.657,98.344l-96-96c-3.124-3.123-8.188-3.123-11.312,0l-24,24c-3.123,3.124-3.123,8.188,0,11.312L360.689,56
			l-22.68,22.68C310.761,58.662,277.812,47.909,244.001,48c-88.323,0.101-159.899,71.676-160,160v48h-16v64h16v160h320V320h16v-64
			h-16v-48c-0.034-17.672-3.008-35.216-8.8-51.912l32.8-32.8l10.344,10.368c3.124,3.123,8.188,3.123,11.312,0l24-24
			C476.78,106.532,476.78,101.468,473.657,98.344z M100.001,208c0.093-79.491,64.509-143.907,144-144
			c29.569-0.089,58.43,9.041,82.568,26.12L256.689,160l67.312,67.312l58.568-58.568c3.614,12.772,5.442,25.983,5.432,39.256v48h-288
			V208z M196.001,464h-48v-64h48V464z M388.001,464h-176v-72c0-4.418-3.582-8-8-8h-64c-4.418,0-8,3.582-8,8v72h-32V320h288V464z
			 M404.001,272v32h-320v-32H404.001z M324.001,204.688L279.313,160l92.688-92.688L416.689,112L324.001,204.688z M444.001,116.688
			L359.313,32l12.688-12.688L456.689,104L444.001,116.688z"/>
	</g>
</g>
<g>
	<g>
		<path d="M284.001,384h-32c-4.418,0-8,3.582-8,8v32c0,4.418,3.582,8,8,8h32c4.418,0,8-3.582,8-8v-32
			C292.001,387.582,288.419,384,284.001,384z M276.001,416h-16v-16h16V416z"/>
	</g>
</g>
<g>
	<g>
		<path d="M364.001,384h-32c-4.418,0-8,3.582-8,8v32c0,4.418,3.582,8,8,8h32c4.418,0,8-3.582,8-8v-32
			C372.001,387.582,368.419,384,364.001,384z M356.001,416h-16v-16h16V416z"/>
	</g>
</g>
</svg>
