<svg version="1.1" id="Capa_1" xmlns="http://www.w3.org/2000/svg" xmlns:xlink="http://www.w3.org/1999/xlink" x="0px" y="0px"
	 viewBox="0 0 480.071 480.071" style="enable-background:new 0 0 480.071 480.071;" xml:space="preserve">
<g>
	<g>
		<path d="M72.026,72.071c-13.255,0-24-10.745-24-24c0-4.418-3.582-8-8-8s-8,3.582-8,8c0,13.255-10.745,24-24,24
			c-4.418,0-8,3.582-8,8s3.582,8,8,8c13.255,0,24,10.745,24,24c0,4.418,3.582,8,8,8s8-3.582,8-8c0-13.255,10.745-24,24-24
			c4.418,0,8-3.582,8-8S76.444,72.071,72.026,72.071z M40.026,88.071c-2.278-3.029-4.971-5.722-8-8c3.029-2.278,5.722-4.971,8-8
			c2.278,3.029,4.971,5.722,8,8C44.997,82.349,42.303,85.042,40.026,88.071z"/>
	</g>
</g>
<g>
	<g>
		<rect x="112.026" y="0.071" width="16" height="16"/>
	</g>
</g>
<g>
	<g>
		<rect x="112.026" y="32.071" width="16" height="16"/>
	</g>
</g>
<g>
	<g>
		<rect x="96.026" y="16.071" width="16" height="16"/>
	</g>
</g>
<g>
	<g>
		<rect x="128.026" y="16.071" width="16" height="16"/>
	</g>
</g>
<g>
	<g>
		<rect x="416.026" y="136.071" width="16" height="16"/>
	</g>
</g>
<g>
	<g>
		<rect x="448.026" y="152.071" width="16" height="16"/>
	</g>
</g>
<g>
	<g>
		<path d="M420.73,345.599l-28.704-20.872V172.071c0.072-19.811-15.929-35.93-35.741-36.003c-9.137-0.033-17.942,3.421-24.619,9.659
			C320.771,91.06,289.744,42.477,244.73,9.599c-2.805-2.039-6.603-2.039-9.408,0c-45.014,32.878-76.041,81.461-86.936,136.128
			c-14.477-13.524-37.177-12.752-50.701,1.725c-6.237,6.677-9.692,15.482-9.659,24.619v149.056l-36.44,24.288
			c-2.225,1.484-3.56,3.982-3.56,6.656v56c0,4.418,3.582,8,8,8h120.208c-5.294,6.883-8.179,15.316-8.208,24v32c0,4.418,3.582,8,8,8
			h128c4.418,0,8-3.582,8-8v-32c-0.029-8.684-2.914-17.117-8.208-24h112.208c4.418,0,8-3.582,8-8v-56
			C424.026,349.511,422.801,347.105,420.73,345.599z M144.026,400.071h-80v-43.72l80-53.328V400.071z M144.026,283.791l-40,26.68
			v-138.4c0-11.046,8.954-20,20-20s20,8.954,20,20V283.791z M160.026,400.071V253.487l24-9.6v156.184H160.026z M232.026,464.071h-48
			v-24c0-13.255,10.745-24,24-24s24,10.745,24,24V464.071z M256.026,312.071h-32c-4.418,0-8,3.582-8,8v80h-16V154.735l40-53.328
			l40,53.328v245.336h-16v-80C264.026,315.653,260.444,312.071,256.026,312.071z M232.026,328.071h16v72h-16V328.071z
			 M240.026,416.319c-0.064-0.088-0.136-0.16-0.208-0.248h0.416C240.162,416.159,240.09,416.231,240.026,416.319z M296.026,464.071
			h-48v-24c0-13.255,10.745-24,24-24s24,10.745,24,24V464.071z M320.026,400.071h-24V243.887l24,9.6V400.071z M320.026,236.239
			l-24-9.6v-74.568c0-1.731-0.561-3.415-1.6-4.8l-48-64c-2.908-3.535-8.131-4.042-11.666-1.134c-0.414,0.34-0.794,0.72-1.134,1.134
			l-48,64c-1.039,1.385-1.6,3.069-1.6,4.8v74.584l-24,9.6v-47.384c0.104-63.707,29.631-123.793,80-162.8
			c50.369,39.007,79.896,99.093,80,162.8V236.239z M336.026,172.071c0-11.046,8.954-20,20-20c11.046,0,20,8.954,20,20v141.024
			l-40-29.096V172.071z M408.026,400.071h-72v-96.288l72,52.36V400.071z"/>
	</g>
</g>
<g>
	<g>
		<path d="M270.882,171.959c-6.455-10.891-18.197-17.545-30.856-17.488c-12.656-0.061-24.397,6.588-30.856,17.472
			c-2.28,3.785-1.06,8.701,2.725,10.981c1.247,0.751,2.675,1.148,4.131,1.147h48c4.418-0.003,7.997-3.588,7.994-8.006
			C272.018,174.619,271.625,173.2,270.882,171.959z"/>
	</g>
</g>
<g>
	<g>
		<path d="M478.983,12.095c-0.005-0.008-0.009-0.016-0.014-0.024c-2.199-3.832-7.088-5.156-10.92-2.958
			c-0.008,0.005-0.016,0.009-0.024,0.014l-14.896,8.544c-16.715-20.53-46.909-23.622-67.439-6.907
			c-15.91,12.954-21.812,34.597-14.681,53.835l-14.984,8.528c-3.835,2.194-5.166,7.081-2.972,10.917
			c1.43,2.499,4.092,4.037,6.972,4.028c1.403,0.009,2.784-0.355,4-1.056l14.896-8.544c16.723,20.524,46.917,23.605,67.441,6.883
			c15.892-12.948,21.791-34.569,14.679-53.795l14.984-8.544C479.858,20.817,481.182,15.927,478.983,12.095z M384.026,48.071
			c-0.023-17.647,14.263-31.971,31.91-31.994c8.658-0.011,16.95,3.491,22.978,9.706l-53.6,30.648
			C384.513,53.715,384.08,50.903,384.026,48.071z M416.116,80.066c-8.658,0.011-16.95-3.491-22.978-9.706l53.6-30.648
			c0.801,2.717,1.234,5.528,1.288,8.36C448.049,65.718,433.763,80.042,416.116,80.066z"/>
	</g>
</g>
</svg>
