<svg id="a893f38a-d1ae-46df-85cc-8e03f8275e66" data-name="Capa 1" xmlns="http://www.w3.org/2000/svg" viewBox="0 0 512 512"><title>crypto</title><path d="M236.39,470.26c0-.12,0-.22,0-.33s0-.19,0-.29,0-.42-.08-.63l0-.17a7.07,7.07,0,0,0-.49-1.58,1.09,1.09,0,0,0-.08-.15,6.1,6.1,0,0,0-.29-.57l-.13-.2c-.1-.17-.21-.32-.32-.48l-.15-.2a4.81,4.81,0,0,0-.42-.48l-.12-.13a6.2,6.2,0,0,0-.6-.55l0,0L198.54,436.3a7.41,7.41,0,0,0-9.28,11.56l17.27,13.87c-45.67-4.52-86.86-22.86-117.7-52.79-35-33.95-54.26-80.07-54.26-129.86a7.42,7.42,0,0,0-14.83,0c0,53.83,20.87,103.73,58.77,140.5,33.41,32.42,78,52.22,127.21,57l-17.3,11.25a7.41,7.41,0,1,0,8.08,12.43L233,476.47l0,0a6.38,6.38,0,0,0,.67-.49l.09-.08a5.44,5.44,0,0,0,.49-.47c.07-.06.12-.13.18-.19l.36-.43.16-.21c.11-.16.22-.33.32-.5a1.63,1.63,0,0,0,.11-.17,7.56,7.56,0,0,0,.65-1.52l0-.12c.06-.22.11-.44.15-.67a1.87,1.87,0,0,0,0-.25,5,5,0,0,0,.06-.56.77.77,0,0,0,0-.15v-.15C236.38,470.4,236.39,470.33,236.39,470.26Z"/><path d="M433.94,97.19c-33.42-32.42-78-52.22-127.22-57L324,29a7.41,7.41,0,1,0-8.08-12.42L279.42,40.31l0,0a8.05,8.05,0,0,0-.66.49l-.09.08c-.18.15-.34.31-.5.47l-.18.19-.36.43-.15.21a5.39,5.39,0,0,0-.33.5,1.74,1.74,0,0,0-.11.18,7.24,7.24,0,0,0-.65,1.51l0,.12c-.06.22-.11.44-.15.67a2.17,2.17,0,0,0,0,.25,5.51,5.51,0,0,0-.06.57.77.77,0,0,0,0,.15v.15c0,.07,0,.14,0,.22s0,.22,0,.32a2.71,2.71,0,0,0,0,.29c0,.22.05.43.08.64l0,.16a7.09,7.09,0,0,0,.5,1.58c0,.06.05.11.07.16s.19.38.29.56a2.39,2.39,0,0,1,.13.21c.1.16.21.32.32.47a1.56,1.56,0,0,0,.16.2c.13.17.27.33.41.48l.12.13a6.2,6.2,0,0,0,.6.55l0,0L313.9,80.47a7.41,7.41,0,0,0,9.28-11.56L305.91,55c45.67,4.53,86.86,22.86,117.71,52.79,35,34,54.26,80.07,54.26,129.87a7.41,7.41,0,1,0,14.82,0C492.7,183.86,471.83,134,433.94,97.19Z"/><path d="M138.79,0C62.26,0,0,62.26,0,138.79S62.26,277.58,138.79,277.58s138.79-62.26,138.79-138.79S215.32,0,138.79,0Zm0,262.76a124,124,0,1,1,124-124A124.11,124.11,0,0,1,138.79,262.76Z"/><path d="M244.39,152.06a7.4,7.4,0,0,0-8.7,5.84A98.78,98.78,0,0,1,41.91,158a7.41,7.41,0,1,0-14.54,2.87,113.6,113.6,0,0,0,222.87-.15A7.41,7.41,0,0,0,244.39,152.06Z"/><path d="M248.8,110.47a113.61,113.61,0,0,0-220-.12,7.41,7.41,0,0,0,14.35,3.7,98.8,98.8,0,0,1,191.29.1,7.41,7.41,0,0,0,7.17,5.58,7.26,7.26,0,0,0,1.84-.24A7.41,7.41,0,0,0,248.8,110.47Z"/><path d="M373.21,234.42c-76.53,0-138.79,62.26-138.79,138.79S296.68,512,373.21,512,512,449.74,512,373.21,449.74,234.42,373.21,234.42Zm0,262.76a124,124,0,1,1,124-124A124.11,124.11,0,0,1,373.21,497.18Z"/><path d="M483.65,346.61a113.61,113.61,0,0,0-220.75-.54,7.41,7.41,0,0,0,14.4,3.53,98.79,98.79,0,0,1,191.94.47,7.41,7.41,0,1,0,14.41-3.46Z"/><path d="M478.69,387.4a7.42,7.42,0,0,0-8.75,5.77,98.78,98.78,0,0,1-193.38.43,7.41,7.41,0,1,0-14.5,3,113.6,113.6,0,0,0,222.4-.49A7.4,7.4,0,0,0,478.69,387.4Z"/><path d="M143.79,126.92V92c12.05.86,16.52,6.36,20.65,6.36,5.16,0,7.57-6.54,7.57-9.81,0-8.43-16.52-12-28.22-12.38V71.52c0-2.07-2.58-4-5.16-4-2.92,0-5,1.89-5,4v5C117.3,78.23,101,86.83,101,108.51c0,22,17.21,28.22,32.69,33.73v40.43c-17.55-1.37-22.19-13.42-27.87-13.42-4.3,0-7.92,5.68-7.92,9.81,0,8.43,14.46,20,35.79,20.3v5.34c0,2.06,2.07,4,5,4,2.58,0,5.16-1.89,5.16-4v-5.85c18.59-2.58,31.32-14.28,31.32-35.45C175.11,140,158.76,132.43,143.79,126.92Zm-9.11-3.27c-9.12-3.44-16.52-7.05-16.52-16.86,0-8.94,6.88-13.25,16.52-14.45Zm8.08,58.68V146c8.43,3.62,15.14,8.43,15.14,19.27C157.9,175.1,152.05,180.61,142.76,182.33Z"/><path d="M400,374.42c7.82-3.46,12.78-11.88,12.78-24.37,0-15.77-7.91-22.47-18.59-24.87h.39v-7a7,7,0,0,0-14,0V324h-7.67v-5.88a7,7,0,0,0-14,0V324H348.16a7.41,7.41,0,0,0-.19,14.82v80.29a7.42,7.42,0,0,0,.19,14.83h10.69v6.24a7,7,0,0,0,14,0V434h7.67v6.24a7,7,0,0,0,14,0v-7h-.71c12.64-2.52,21.62-11.51,21.62-30.81v-2.86C415.5,384.2,409.33,378,400,374.42Zm-36.25-36.25h17.6c9.47,0,15.49,4.36,15.49,14.44s-5,15.49-15.19,15.49h-17.9V338.17Zm35.8,63c0,12.93-6.32,18.65-17,18.65h-18.8V380.73h18.8c10.68,0,17,4.82,17,18Z"/></svg>