<svg id="93c1f587-4d4b-4b11-9fc3-114c80fbfe8d" data-name="Capa 1" xmlns="http://www.w3.org/2000/svg" viewBox="0 0 36.05 37.07"><title>currency</title><g id="93730196-00f0-40eb-a5ca-901b7dae8913" data-name="Layer 1"><path d="M21.3,17.44a11.1,11.1,0,0,1,2-5.4A9,9,0,1,0,12.61,22.79,13.52,13.52,0,0,1,21.3,17.44ZM10.88,16.13a.58.58,0,0,1,.58-.59h1.85v-.43l-.25-.43h-1.6a.58.58,0,0,1,0-1.16h.91l-2-3.24a1.35,1.35,0,0,1-.21-.61,1.21,1.21,0,0,1,2.3-.38l2,3.8,2-3.8a1.15,1.15,0,0,1,1-.71,1.16,1.16,0,0,1,1.29,1.09,1.35,1.35,0,0,1-.21.61l-2,3.24h.91a.58.58,0,0,1,0,1.16H15.92l-.26.43v.43h1.85a.59.59,0,0,1,0,1.17H15.66v1.47a1.09,1.09,0,0,1-1.17,1.19,1.1,1.1,0,0,1-1.18-1.19V16.71H11.46A.57.57,0,0,1,10.88,16.13Z" transform="translate(-5.47 -4.97)"/><path d="M32.51,9.47a9,9,0,0,0-8.92,7.78,13.36,13.36,0,0,1,4.87.95.63.63,0,0,1,.63-.37h.32a2.73,2.73,0,0,1-.45-1.6c0-1.84,1.64-3.14,3.74-3.14,2.61,0,3.87,1.4,3.87,2.56a1,1,0,0,1-1.11,1c-1.32,0-.51-1.82-2.52-1.82a1.56,1.56,0,0,0-1.72,1.49,3.27,3.27,0,0,0,.5,1.46h1.62c.61,0,.92.22.92.72s-.31.71-.92.71H32.16a.86.86,0,0,1,.08.36,2,2,0,0,1-.15.71,15.27,15.27,0,0,1,1.36,1.31,5.44,5.44,0,0,0,1.22.18c.25,0,.86-.16,1.1-.16a.86.86,0,0,1,.86.95c0,.84-.75,1.21-1.52,1.26a13.41,13.41,0,0,1,1.25,2.75A9,9,0,0,0,32.51,9.47Z" transform="translate(-5.47 -4.97)"/><path d="M24.1,31.84v3.69c1.11-.08,2.29-.6,2.29-1.83S25.1,32.06,24.1,31.84Z" transform="translate(-5.47 -4.97)"/><path d="M20.89,27.43c0,.93.69,1.47,2.09,1.75V25.84C21.71,25.88,20.89,26.63,20.89,27.43Z" transform="translate(-5.47 -4.97)"/><path d="M23.5,19.5A11.27,11.27,0,1,0,34.77,30.77,11.29,11.29,0,0,0,23.5,19.5Zm.6,17.93v1.15a.63.63,0,0,1-.56.64.62.62,0,0,1-.56-.64V37.43c-3.15-.07-4.72-2-4.72-3.43a1.07,1.07,0,0,1,1.16-1.17c2.09,0,.46,2.57,3.56,2.7V31.64c-2.76-.51-4.43-1.72-4.43-3.79,0-2.53,2.1-3.83,4.43-3.91V23a.61.61,0,0,1,.56-.63.62.62,0,0,1,.56.63v1c1.45,0,4.43.95,4.43,2.78a1.11,1.11,0,0,1-1.18,1.15c-1.21,0-1.19-2-3.25-2v3.54c2.46.52,4.63,1.25,4.63,4.12C28.73,36,26.87,37.26,24.1,37.43Z" transform="translate(-5.47 -4.97)"/></g></svg>