<svg id="386f6511-bfc9-4f4f-b744-ffe089a8f717" data-name="Capa 1" xmlns="http://www.w3.org/2000/svg" viewBox="0 0 423.22 264.74"><title>world</title><path d="M352.35,231.71l7.95-.38a7.93,7.93,0,0,0,5.4-2.48l8.35-8.84a8,8,0,0,0,1.33-9l-5.85-11.56,13-8a7.92,7.92,0,0,0,3.45-4.53l5.25-17.86a7.92,7.92,0,0,0-4.49-9.53l-7.87-3.33,1-6.1,9-3.79a7.93,7.93,0,0,0,4.49-4.93l1.27-4L405,149.63a7.93,7.93,0,0,0,14-5.13v-14l-.32-15.15a18.77,18.77,0,0,0-18.65-18.28,19,19,0,0,0-2.25.14l-77.43,9.29.53-1.44a7.93,7.93,0,0,0-7.15-10.68L303.92,94a8,8,0,0,0-6.66,3.17l-24.18,32.25-21.33,10.69-17.58-9.06a7.95,7.95,0,0,0-9.43,1.63l-16.3,17.39a7.91,7.91,0,0,0-1.66,8.18l2.95,7.88L199.29,176l-9.94,5.76a7.91,7.91,0,0,0-3.88,8.05l.83,5.54a8,8,0,0,0,7.86,6.76,7.87,7.87,0,0,0,3.26-.7l8.5-3.83,10.6-4.49,10.86,7.6a7.78,7.78,0,0,0,3.05,1.29l16.6,3.17v4.1l-34.35-5.15a7.86,7.86,0,0,0-4.1.47l-22.4,8.84a7.93,7.93,0,0,0-4.84,5.66L177,238.81a7.94,7.94,0,0,0,2.44,7.63l10.32,9.29a8,8,0,0,0,6.13,2l19.93-2.11.58,29.84a7.85,7.85,0,0,0,.34,2.15l3.63,12a17.35,17.35,0,0,0,32,3l27.54-52.84a8,8,0,0,0-1.61-9.46l-3.59-3.37,5.59-1.86a7.94,7.94,0,0,0,3.1-13.14l-8.19-8.12.54-.69,17.15,11.06,13.82,20a7.94,7.94,0,0,0,13.59-.88l6.16-12.11L340.24,241a7.94,7.94,0,0,0,12.42-7.84ZM245.23,298.89A9.35,9.35,0,0,1,228,297.28l-3.64-12-.57-29.84a8,8,0,0,0-8.75-7.75l-20,2.07-10.3-9.23,4.34-19.68L211.48,212l37.33,5.6L263.71,237c.34.46,9.06,9.05,9.06,9.05Zm100.92-72.21a7.93,7.93,0,0,0-1.63,6.33l.24,1.36-13.71-9.74a7.94,7.94,0,0,0-11.66,2.83l-6.18,12.07-13.78-19.91a7.84,7.84,0,0,0-2.22-2.15L280,206.39a7.93,7.93,0,0,0-10.24,1.4l-.63.7a8,8,0,0,0,.32,10.89l8.14,8.13-9.1,3.07-13.5-18v-7.44a8,8,0,0,0-6.43-7.79L232,194.16l-10.86-7.6a8,8,0,0,0-7.64-.81l-10.75,4.52-8.51,3.91-.86-5.47,9.94-5.76a7.7,7.7,0,0,0,1.49-1.11l10.45-9.9a7.92,7.92,0,0,0,2-8.51l-2.94-7.88,16.23-17.38,17.58,9.06a8,8,0,0,0,3.63.88,7.92,7.92,0,0,0,3.55-.84l21.39-10.69a8,8,0,0,0,2.79-2.34L303.61,102l9.79.3-.56,1.53a7.93,7.93,0,0,0,8.39,10.63l77.53-9.3a11.48,11.48,0,0,1,1.3-.08,10.72,10.72,0,0,1,10.65,10.45l.32,15.06v13.75L400.7,132.13a7.93,7.93,0,0,0-13.63,2.73l-1.27,4.08-9,3.8a7.9,7.9,0,0,0-4.74,5.93L371,154.82a7.9,7.9,0,0,0,4.69,8.68l7.88,3.32-5.23,17.82-13,8a7.89,7.89,0,0,0-2.94,10.31l5.83,11.57-8.31,8.83-8,.38A7.91,7.91,0,0,0,346.15,226.68Z" transform="translate(0 -79.24)"/><path d="M422.31,296.3,413,278.59a7.94,7.94,0,0,0-13.59-.77l-2.43-3a7.94,7.94,0,0,0-10.28-1.85l-22.05,13.23a8,8,0,0,0-3.8,5.91L359,308.49a7.93,7.93,0,0,0,8.87,8.78l18.67-2.38,3,7a7.92,7.92,0,0,0,7.32,4.86h0a7.81,7.81,0,0,0,1.36-.12l10.25-1.78a8,8,0,0,0,5.79-4.37l8.25-17.05A8,8,0,0,0,422.31,296.3ZM407,317l-10.2,1.77-2.94-7a7.94,7.94,0,0,0-7.32-4.86,8.22,8.22,0,0,0-1,.06l-18.66,2.41L368.76,293l22-13.24,2.48,3.1a7.94,7.94,0,0,0,12.75-.47L415.23,300Z" transform="translate(0 -79.24)"/><path d="M153.47,265l-37.7-24.42a12.69,12.69,0,0,0-17,2.9l-8.45-4.74-15.1-21.49H83a7.9,7.9,0,0,0,5-1.81l28.64-23.55,15.94-9a7.94,7.94,0,0,0,2.6-11.45l-14.11-20.23a7.95,7.95,0,0,0-13.25.34l-7.27,11.78-8.34-9.38,16.57-12.19a7.94,7.94,0,0,0,2.46-9.82l-4.09-8.54A7.94,7.94,0,0,0,96,119.93l-7.22,4.21L56.13,110.33,32.69,97.1a8,8,0,0,0-9,.8L11.31,108.16a7.93,7.93,0,0,0-2.4,3.4L.48,134.74A7.95,7.95,0,0,0,7.73,145.4l17.89.42L37,173.89,35.13,201.7a7.93,7.93,0,0,0,1.23,4.81l15.27,23.81a7.94,7.94,0,0,0,3.84,3.14L84.84,244.7a4.16,4.16,0,0,0,.88.63l8.58,4.81-4.61,6.91a7.92,7.92,0,0,0-.35,8.22L99,282.88l-1.26,42.85a7.94,7.94,0,0,0,1.66,5.09l7.79,10.07a7.87,7.87,0,0,0,6.24,3.09,8.08,8.08,0,0,0,5.76-2.42,7.86,7.86,0,0,0,2.22-5.72l-.36-14.23,29.28-28a7.88,7.88,0,0,0,2.18-3.69l4.31-16.17A7.91,7.91,0,0,0,153.47,265Zm-95.1-39L43.11,202.23,45,174.43a8,8,0,0,0-.56-3.51L33,142.82a8,8,0,0,0-7.16-5L8,137.4l8.38-23.08,12.36-10.25L52.2,117.3a7.48,7.48,0,0,0,.81.39l32.65,13.82a8,8,0,0,0,7.07-.44l7.2-4.24,4.1,8.47L87.46,147.49a7.94,7.94,0,0,0-1.26,11.64l8.33,9.47a8,8,0,0,0,12.7-1l7.32-11.71,14.08,20.06-15.94,9a7.6,7.6,0,0,0-1.13.78L83,209.26H74a7.32,7.32,0,0,0-6.41,4,7.54,7.54,0,0,0,.54,7.77l8.35,11.89ZM144.8,287.8l-29.28,28a8,8,0,0,0-2.45,5.93l.33,14.09L105.74,326,107,283.11a8,8,0,0,0-1-4.05l-9.67-17.57,8.56-12.84a4.74,4.74,0,0,1,4-2.11,4.68,4.68,0,0,1,2.56.76l37.67,24.36Z" transform="translate(0 -79.24)"/><path d="M136.06,107.94l4.3,3.26v39.44a7.94,7.94,0,0,0,12.29,6.65l27.26-17.83a7.91,7.91,0,0,0,3.38-4.8l9.09-38.19a7.93,7.93,0,0,0-2.45-7.77l-8.41-7.47a8,8,0,0,0-8.28-1.41L137.88,94.29a7.93,7.93,0,0,0-1.82,13.65Zm40.15-20.73,8.38,7.41-9.06,38.15-27.17,17.76V111.2a8,8,0,0,0-3.11-6.3L141,101.65Z" transform="translate(0 -79.24)"/></svg>