<?xml version="1.0" ?><!DOCTYPE svg  PUBLIC '-//W3C//DTD SVG 1.1//EN'  'http://www.w3.org/Graphics/SVG/1.1/DTD/svg11.dtd'><svg enable-background="new 0 0 64 64" height="64px" id="Layer_1" version="1.1" viewBox="0 0 64 64" width="64px" xml:space="preserve" xmlns="http://www.w3.org/2000/svg" xmlns:xlink="http://www.w3.org/1999/xlink"><g><g><g><g><polygon fill="#2FABF7" points="5.9,26.5 8.1,26.5 7,23.7     "/></g><g><path d="M33.2,24.1C33,24,32.7,24,32.4,24h-2v1.6h2c0.3,0,0.6,0,0.8-0.1c0.2-0.1,0.3-0.4,0.3-0.7      C33.6,24.4,33.4,24.2,33.2,24.1z" fill="#228FE0"/></g><g><path d="M54.6,21.1v1.2L54,21.1h-4.7v1.2l-0.6-1.2h-6.4c-1.1,0-2,0.2-2.8,0.6v-0.6H35v0.6      c-0.5-0.4-1.1-0.6-1.9-0.6H17l-1.1,2.5l-1.1-2.5H9.7v1.2l-0.6-1.2H4.8l-2,4.7l-2.3,5.2h2.3h2.8l0.6-1.6h1.4l0.6,1.6H14v-1.2      l0.5,1.2h2.9l0.5-1.2v1.2h13.9l0-2.6H32c0.2,0,0.2,0,0.2,0.3v2.2h7.2v-0.6c0.6,0.3,1.5,0.6,2.7,0.6h3l0.6-1.6h1.4l0.6,1.6h5.8      v-1.5l0.9,1.5h4.7v-9.8H54.6z M20.8,29.5h-1.7l0-5.5l-2.4,5.5h-1.5L12.8,24v5.5H9.4L8.7,28H5.3l-0.6,1.6H2.8l3-7.1h2.5l2.8,6.7      v-6.7h2.7l2.2,4.8l2-4.8h2.8V29.5z M27.6,24h-3.9v1.3h3.8v1.4h-3.8v1.4h3.9v1.5H22v-7.1h5.6V24z M35.1,26.9      c0.2,0.4,0.3,0.7,0.3,1.3v1.4h-1.7l0-0.9c0-0.4,0-1-0.3-1.4C33.1,27,32.8,27,32.2,27h-1.8v2.6h-1.7v-7.1h3.8c0.9,0,1.5,0,2,0.3      c0.5,0.3,0.8,0.8,0.8,1.6c0,1.1-0.7,1.7-1.2,1.9C34.6,26.4,34.9,26.7,35.1,26.9z M38.1,29.5h-1.7v-7.1h1.7V29.5z M57.8,29.5      h-2.4l-3.2-5.3v5.3h-3.4L48.2,28h-3.5l-0.6,1.6h-1.9c-0.8,0-1.8-0.2-2.4-0.8c-0.6-0.6-0.9-1.4-0.9-2.7c0-1,0.2-2,0.9-2.8      c0.5-0.6,1.4-0.8,2.5-0.8h1.6V24h-1.6c-0.6,0-0.9,0.1-1.3,0.4c-0.3,0.3-0.5,0.9-0.5,1.6c0,0.8,0.1,1.3,0.5,1.7      c0.3,0.3,0.7,0.4,1.2,0.4h0.7l2.3-5.5h2.5l2.8,6.7v-6.7h2.5l2.9,4.9v-4.9h1.7V29.5z" fill="#0571C1"/></g><g><polygon fill="#228FE0" points="45.3,26.5 47.6,26.5 46.5,23.7     "/></g></g><g><g><polygon fill="#228FE0" points="28.3,40.9 28.3,35.2 25.7,38     "/></g><g><polygon fill="#2FABF7" points="17.6,35.9 17.6,37.2 21.3,37.2 21.3,38.6 17.6,38.6 17.6,40.1 21.7,40.1 23.6,38 21.8,35.9           "/></g><g><path d="M32.1,35.9H30v1.8h2.2c0.6,0,1-0.3,1-0.9C33.1,36.2,32.7,35.9,32.1,35.9z" fill="#228FE0"/></g><g><path d="M63,37.6v-4.5h-1.2h-3c-0.9,0-1.6,0.2-2.1,0.6v-0.6h-4.6c-0.7,0-1.6,0.2-2,0.6v-0.6H42v0.6      c-0.6-0.5-1.7-0.6-2.2-0.6h-5.4v0.6c-0.5-0.5-1.7-0.6-2.3-0.6h-6l-1.4,1.5l-1.3-1.5h-9v9.8h8.8l1.4-1.5l1.3,1.5l5.4,0v-2.3H32      c0.7,0,1.6,0,2.3-0.3v2.7h4.5v-2.6H39c0.3,0,0.3,0,0.3,0.3v2.3h13.6c0.9,0,1.8-0.2,2.3-0.6v0.6h4.3c0.9,0,1.8-0.1,2.4-0.5v0      c1-0.6,1.6-1.7,1.6-3C63.5,38.8,63.3,38.1,63,37.6z M32,39.2H30v2.4h-3.2l-2-2.3l-2.1,2.3h-6.6v-7.1h6.7l2,2.3l2.1-2.3h5.3      c1.3,0,2.8,0.4,2.8,2.3C34.9,38.8,33.5,39.2,32,39.2z M42,38.8c0.2,0.3,0.3,0.7,0.3,1.3v1.4h-1.7v-0.9c0-0.4,0-1.1-0.3-1.4      c-0.2-0.3-0.6-0.3-1.2-0.3h-1.8v2.6h-1.7v-7.1h3.8c0.8,0,1.5,0,2,0.3c0.5,0.3,0.9,0.8,0.9,1.6c0,1.1-0.7,1.7-1.2,1.9      C41.6,38.4,41.9,38.6,42,38.8z M48.9,35.9H45v1.3h3.8v1.4H45v1.4l3.9,0v1.5h-5.6v-7.1h5.6V35.9z M53.1,41.5h-3.2V40h3.2      c0.3,0,0.5,0,0.7-0.2c0.1-0.1,0.2-0.3,0.2-0.5c0-0.2-0.1-0.4-0.2-0.5c-0.1-0.1-0.3-0.2-0.6-0.2c-1.6-0.1-3.5,0-3.5-2.2      c0-1,0.6-2.1,2.4-2.1h3.3V36h-3.1c-0.3,0-0.5,0-0.7,0.1c-0.2,0.1-0.2,0.3-0.2,0.5c0,0.3,0.2,0.4,0.4,0.5      c0.2,0.1,0.4,0.1,0.6,0.1l0.9,0c0.9,0,1.5,0.2,1.9,0.6c0.3,0.3,0.5,0.8,0.5,1.5C55.7,40.8,54.8,41.5,53.1,41.5z M61.7,40.8      c-0.4,0.4-1.1,0.7-2.1,0.7h-3.2V40h3.2c0.3,0,0.5,0,0.7-0.2c0.1-0.1,0.2-0.3,0.2-0.5c0-0.2-0.1-0.4-0.2-0.5      c-0.1-0.1-0.3-0.2-0.6-0.2c-1.6-0.1-3.5,0-3.5-2.2c0-1,0.6-2.1,2.4-2.1h3.3V36h-3c-0.3,0-0.5,0-0.7,0.1      c-0.2,0.1-0.2,0.3-0.2,0.5c0,0.3,0.1,0.4,0.4,0.5c0.2,0.1,0.4,0.1,0.6,0.1l0.9,0c0.9,0,1.5,0.2,1.9,0.6c0.1,0,0.1,0.1,0.1,0.1      c0.3,0.4,0.4,0.9,0.4,1.4C62.3,39.9,62.1,40.4,61.7,40.8z" fill="#0571C1"/></g><g><path d="M40.2,36.1c-0.2-0.1-0.5-0.1-0.8-0.1h-2v1.6h2c0.3,0,0.6,0,0.8-0.1c0.2-0.1,0.3-0.4,0.3-0.7      C40.6,36.4,40.4,36.2,40.2,36.1z" fill="#228FE0"/></g></g></g><g><g><g><path d="M33.2,24.1C33,24,32.7,24,32.4,24h-2v1.6h2c0.3,0,0.6,0,0.8-0.1c0.2-0.1,0.3-0.4,0.3-0.7      C33.6,24.4,33.4,24.2,33.2,24.1z" fill="#228FE0"/></g><g><polygon fill="#228FE0" points="45.3,26.5 47.6,26.5 46.5,23.7     "/></g></g><g><g><polygon fill="#228FE0" points="28.3,40.9 28.3,35.2 25.7,38     "/></g><g><path d="M32.1,35.9H30v1.8h2.2c0.6,0,1-0.3,1-0.9C33.1,36.2,32.7,35.9,32.1,35.9z" fill="#228FE0"/></g><g><path d="M40.2,36.1c-0.2-0.1-0.5-0.1-0.8-0.1h-2v1.6h2c0.3,0,0.6,0,0.8-0.1c0.2-0.1,0.3-0.4,0.3-0.7      C40.6,36.4,40.4,36.2,40.2,36.1z" fill="#228FE0"/></g></g></g><g><polygon fill="#2FABF7" points="31.4,41.3 30,39.8 30,41.5 26.7,41.5 24.7,39.2 22.5,41.5 15.9,41.5 15.9,34.5 22.6,34.5     24.7,36.8 25.7,35.6 23.2,33.1 14.4,33.1 14.4,42.9 23.2,42.9 24.7,41.4 26,42.9 31.4,42.9   "/></g><g><g><polygon fill="#2FABF7" points="21,30.9 19.7,29.5 19.1,29.5 19.1,28.9 17.6,27.4 16.6,29.5 15.2,29.5 12.8,24 12.8,29.5      9.4,29.5 8.7,28 5.3,28 4.6,29.5 2.8,29.5 5.8,22.5 8.3,22.5 11.1,29.2 11.1,22.5 12.6,22.5 11.2,21.1 9.7,21.1 9.7,22.3      9.2,21.1 4.8,21.1 2.8,25.8 0.5,30.9 2.8,30.9 5.7,30.9 6.3,29.4 7.7,29.4 8.4,30.9 14,30.9 14,29.7 14.5,30.9 17.4,30.9      17.9,29.7 17.9,30.9    "/></g><g><polygon fill="#2FABF7" points="16.4,26.3 14.8,24.7 16,27.3    "/></g></g><g><g><path d="M61.9,42.4c0.9-0.6,1.5-1.6,1.6-2.7l-1.4-1.4c0.1,0.3,0.2,0.6,0.2,1c0,0.6-0.2,1.1-0.6,1.5     c-0.4,0.4-1.1,0.7-2.1,0.7h-3.2V40h3.2c0.3,0,0.5,0,0.7-0.2c0.1-0.1,0.2-0.3,0.2-0.5c0-0.2-0.1-0.4-0.2-0.5     c-0.1-0.1-0.3-0.2-0.6-0.2c-1.6-0.1-3.5,0-3.5-2.2c0-1,0.6-1.9,2.1-2.1l-1.1-1.1c-0.2,0.1-0.3,0.2-0.4,0.2v-0.6h-4.6     c-0.7,0-1.6,0.2-2,0.6v-0.6H42v0.6c-0.6-0.5-1.7-0.6-2.2-0.6h-5.4v0.6c-0.5-0.5-1.7-0.6-2.3-0.6h-6l-1.4,1.5l-1.3-1.5h-1.1l3,3     l1.5-1.6h5.3c1.3,0,2.8,0.4,2.8,2.3c0,2-1.4,2.4-2.9,2.4H30v1.5l1.5,1.5v-1.5H32c0.7,0,1.6,0,2.3-0.3v2.7h4.5v-2.6H39     c0.3,0,0.3,0,0.3,0.3v2.3h13.6c0.9,0,1.8-0.2,2.3-0.6v0.6h4.3C60.3,42.9,61.2,42.8,61.9,42.4L61.9,42.4z M42,38.8     c0.2,0.3,0.3,0.7,0.3,1.3v1.4h-1.7v-0.9c0-0.4,0-1.1-0.3-1.4c-0.2-0.3-0.6-0.3-1.2-0.3h-1.8v2.6h-1.7v-7.1h3.8c0.8,0,1.5,0,2,0.3     c0.5,0.3,0.9,0.8,0.9,1.6c0,1.1-0.7,1.7-1.2,1.9C41.6,38.4,41.9,38.6,42,38.8z M48.9,35.9H45v1.3h3.8v1.4H45v1.4l3.9,0v1.5h-5.6     v-7.1h5.6V35.9z M53.1,41.5h-3.2V40h3.2c0.3,0,0.5,0,0.7-0.2c0.1-0.1,0.2-0.3,0.2-0.5c0-0.2-0.1-0.4-0.2-0.5     c-0.1-0.1-0.3-0.2-0.6-0.2c-1.6-0.1-3.5,0-3.5-2.2c0-1,0.6-2.1,2.4-2.1h3.3V36h-3.1c-0.3,0-0.5,0-0.7,0.1     c-0.2,0.1-0.2,0.3-0.2,0.5c0,0.3,0.2,0.4,0.4,0.5c0.2,0.1,0.4,0.1,0.6,0.1l0.9,0c0.9,0,1.5,0.2,1.9,0.6c0.3,0.3,0.5,0.8,0.5,1.5     C55.7,40.8,54.8,41.5,53.1,41.5z" fill="#228FE0"/></g><g><path d="M57.9,36.6c0,0.3,0.1,0.4,0.4,0.5c0.2,0.1,0.4,0.1,0.6,0.1l0.9,0c0.6,0,1,0.1,1.4,0.3L59.7,36h-0.9     c-0.3,0-0.5,0-0.7,0.1C58,36.2,57.9,36.4,57.9,36.6z" fill="#228FE0"/></g></g><g><g><polygon fill="#228FE0" points="54.4,30.6 54.6,30.9 54.7,30.9    "/></g><g><polygon fill="#228FE0" points="48.9,25.1 50.6,29.2 50.6,26.8    "/></g><g><path d="M31.8,28.4H32c0.2,0,0.2,0,0.2,0.3v2.2h7.2v-0.6c0.6,0.3,1.5,0.6,2.7,0.6h3l0.6-1.6h1.4l0.6,1.6h5.8v-1     l-1.4-1.4v1.1h-3.4L48.2,28h-3.5l-0.6,1.6h-1.9c-0.8,0-1.8-0.2-2.4-0.8c-0.6-0.6-0.9-1.4-0.9-2.7c0-1,0.2-2,0.9-2.8     c0.5-0.6,1.4-0.8,2.5-0.8h1.6V24h-1.6c-0.6,0-0.9,0.1-1.3,0.4c-0.3,0.3-0.5,0.9-0.5,1.6c0,0.8,0.1,1.3,0.5,1.7     c0.3,0.3,0.7,0.4,1.2,0.4h0.7l2.3-5.5h1l-1.4-1.4h-2.6c-1.1,0-2,0.2-2.8,0.6v-0.6H35v0.6c-0.5-0.4-1.1-0.6-1.9-0.6H17l-1.1,2.5     l-1.1-2.5h-4.4l1.4,1.4h2l1.7,3.7l0.6,0.6l1.8-4.4h2.8v7.1h-1.7l0-5.5l-1.7,4l2.9,2.9h11.5L31.8,28.4z M36.4,22.5h1.7v7.1h-1.7     V22.5z M27.6,24h-3.9v1.3h3.8v1.4h-3.8v1.4h3.9v1.5H22v-7.1h5.6V24z M30.4,29.5h-1.7v-7.1h3.8c0.9,0,1.5,0,2,0.3     c0.5,0.3,0.8,0.8,0.8,1.6c0,1.1-0.7,1.7-1.2,1.9c0.4,0.1,0.7,0.4,0.8,0.6c0.2,0.4,0.3,0.7,0.3,1.3v1.4h-1.7l0-0.9     c0-0.4,0-1-0.3-1.4C33.1,27,32.8,27,32.2,27h-1.8V29.5z" fill="#228FE0"/></g></g></g></svg>