<?xml version="1.0" ?><!DOCTYPE svg  PUBLIC '-//W3C//DTD SVG 1.1//EN'  'http://www.w3.org/Graphics/SVG/1.1/DTD/svg11.dtd'><svg enable-background="new 0 0 64 64" height="64px" id="Layer_1" version="1.1" viewBox="0 0 64 64" width="64px" xml:space="preserve" xmlns="http://www.w3.org/2000/svg" xmlns:xlink="http://www.w3.org/1999/xlink"><g><g><g><g><path d="M21.6,23c0,3.1,1.9,5.7,4.6,6.7V16.3C23.5,17.3,21.6,19.9,21.6,23z" fill="#006AC9"/></g><g><path d="M31.3,16.3v13.4c2.7-1,4.6-3.7,4.6-6.7C35.9,19.9,34,17.3,31.3,16.3z" fill="#004A97"/></g><g><path d="M31.3,29.7c2.7-1,4.6-3.7,4.6-6.7" fill="#023563"/></g><g><path d="M34.6,10.6h-5.8c-6.9,0-12.5,5.1-12.5,12.5c0,6.8,5.6,12.3,12.5,12.3h5.8c6.8,0,13-5.5,13-12.3      C47.5,15.7,41.3,10.6,34.6,10.6z M28.8,34.3c-6.3,0-11.3-5.1-11.3-11.3c0-6.3,5.1-11.4,11.3-11.4c6.3,0,11.4,5.1,11.4,11.4      C40.1,29.3,35,34.3,28.8,34.3z" fill="#023563"/></g></g><g><g><path d="M3.5,43.9c0,1,0.7,1.1,1.4,1.1c2.8,0,3.8-2.1,3.8-4.1c0-2.5-1.6-4.2-4.1-4.2c-0.5,0-0.8,0-1,0.1V43.9z       M2.2,37.7c0-1.2-0.6-1.1-1.2-1.1v-0.3c0.5,0,1,0,1.5,0c0.6,0,1.3,0,2.3,0c3.4,0,5.2,2.3,5.2,4.6c0,1.3-0.8,4.6-5.4,4.6      c-0.7,0-1.3,0-1.9,0c-0.6,0-1.2,0-1.8,0v-0.3c0.8-0.1,1.2-0.1,1.2-1V37.7z" fill="#004A97"/></g></g><g><g><path d="M12,37.4c-0.3,0-0.6-0.3-0.6-0.7c0-0.3,0.3-0.6,0.6-0.6c0.3,0,0.6,0.3,0.6,0.6      C12.6,37.1,12.3,37.4,12,37.4 M10.6,45.1h0.3c0.4,0,0.6,0,0.6-0.4v-3.6c0-0.6-0.2-0.7-0.7-0.9V40c0.6-0.2,1.3-0.4,1.4-0.5      c0.1-0.1,0.2-0.1,0.2-0.1c0.1,0,0.1,0.1,0.1,0.2v5c0,0.4,0.3,0.4,0.7,0.4h0.2v0.3c-0.4,0-0.9,0-1.4,0c-0.5,0-0.9,0-1.4,0V45.1z" fill="#004A97"/></g></g><g><g><path d="M14.6,41.2c0-0.5-0.1-0.6-0.8-0.9v-0.2c0.6-0.2,1.1-0.4,1.7-0.6c0,0,0.1,0,0.1,0.1v0.9      c0.7-0.5,1.4-1,2.3-1c1.1,0,1.5,0.8,1.5,1.8v3.4c0,0.4,0.3,0.4,0.7,0.4h0.2v0.3c-0.5,0-0.9,0-1.4,0c-0.5,0-0.9,0-1.4,0v-0.3h0.2      c0.4,0,0.6,0,0.6-0.4v-3.4c0-0.7-0.5-1.1-1.2-1.1c-0.4,0-1.1,0.3-1.5,0.6v3.9c0,0.4,0.3,0.4,0.7,0.4h0.2v0.3c-0.5,0-0.9,0-1.4,0      c-0.5,0-0.9,0-1.4,0v-0.3H14c0.4,0,0.6,0,0.6-0.4V41.2z" fill="#004A97"/></g></g><g><g><path d="M23.6,41.4c0.3,0,0.4-0.2,0.4-0.3c0-0.7-0.4-1.2-1.1-1.2c-0.8,0-1.4,0.6-1.5,1.5H23.6z M21.3,41.8      c0,0.1,0,0.3,0,0.8c0.1,1.2,0.9,2.3,1.9,2.3c0.7,0,1.3-0.4,1.8-0.9l0.2,0.2c-0.6,0.8-1.4,1.5-2.4,1.5c-2.1,0-2.5-2-2.5-2.9      c0-2.6,1.7-3.3,2.6-3.3c1.1,0,2.2,0.7,2.2,2.1c0,0.1,0,0.2,0,0.2L25,41.8H21.3z" fill="#004A97"/></g></g><g><g><path d="M25.4,45.1h0.4c0.4,0,0.6,0,0.6-0.4V41c0-0.4-0.5-0.5-0.7-0.6v-0.2c1-0.4,1.5-0.7,1.6-0.7      c0.1,0,0.1,0,0.1,0.2v1.2h0c0.3-0.5,0.9-1.3,1.7-1.3c0.3,0,0.7,0.2,0.7,0.7c0,0.4-0.2,0.7-0.6,0.7c-0.4,0-0.4-0.3-0.9-0.3      c-0.2,0-1,0.3-1,1.1v3.1c0,0.4,0.3,0.4,0.6,0.4h0.7v0.3c-0.7,0-1.3,0-1.8,0c-0.5,0-1.1,0-1.6,0V45.1z" fill="#004A97"/></g></g><g><g><path d="M30.5,43.6c0.2,0.9,0.7,1.6,1.7,1.6c0.8,0,1.1-0.5,1.1-0.9c0-1.5-2.9-1-2.9-3.2c0-0.7,0.6-1.7,2-1.7      c0.4,0,1,0.1,1.5,0.4l0.1,1.3h-0.3c-0.1-0.8-0.6-1.3-1.4-1.3c-0.5,0-1,0.3-1,0.9c0,1.5,3,1.1,3,3.1c0,0.9-0.7,1.8-2.3,1.8      c-0.5,0-1.1-0.2-1.6-0.4l-0.1-1.5L30.5,43.6z" fill="#004A97"/></g></g><g><g><path d="M46.1,38.6h-0.3c-0.2-1.5-1.3-2.1-2.8-2.1c-1.5,0-3.7,1-3.7,4.2c0,2.6,1.9,4.5,3.9,4.5      c1.3,0,2.4-0.9,2.6-2.3l0.3,0.1l-0.3,1.9c-0.6,0.3-2,0.7-2.9,0.7c-3.1,0-5-2-5-4.9c0-2.7,2.4-4.6,5-4.6c1.1,0,2.1,0.3,3.1,0.7      L46.1,38.6z" fill="#004A97"/></g></g><g><g><path d="M46.6,45.1h0.2c0.4,0,0.6,0,0.6-0.4v-7.3c0-0.9-0.2-0.9-0.7-1v-0.2c0.5-0.2,1.1-0.4,1.4-0.6      c0.1-0.1,0.2-0.1,0.3-0.1c0.1,0,0.1,0.1,0.1,0.2v9.1c0,0.4,0.3,0.4,0.7,0.4h0.2v0.3c-0.4,0-0.9,0-1.4,0c-0.5,0-0.9,0-1.4,0V45.1      z" fill="#004A97"/></g></g><g><g><path d="M55,44.7c0,0.2,0.1,0.2,0.4,0.2c0.2,0,0.4,0,0.5,0v0.3c-0.6,0.1-1.6,0.3-1.9,0.4l-0.1,0v-1.1      c-0.8,0.6-1.4,1.1-2.3,1.1c-0.7,0-1.4-0.5-1.4-1.6v-3.4c0-0.3-0.1-0.7-0.8-0.7v-0.2c0.5,0,1.5-0.1,1.7-0.1      c0.1,0,0.1,0.1,0.1,0.4v3.4c0,0.4,0,1.5,1.1,1.5c0.4,0,1-0.3,1.6-0.8v-3.5c0-0.3-0.6-0.4-1.1-0.5v-0.2c1.2-0.1,1.9-0.2,2-0.2      c0.1,0,0.1,0.1,0.1,0.2V44.7z" fill="#004A97"/></g></g><g><g><path d="M57.6,43.9c0,0.5,0.5,1.3,1.4,1.3c1.4,0,2-1.4,2-2.5c0-1.4-1.1-2.6-2.1-2.6c-0.5,0-0.9,0.3-1.2,0.6V43.9      z M57.6,40.4c0.5-0.4,1.2-0.9,2-0.9c1.5,0,2.4,1.3,2.4,2.8c0,1.7-1.3,3.4-3.1,3.4c-1,0-1.5-0.3-1.8-0.5l-0.4,0.3l-0.3-0.1      c0.1-0.8,0.2-1.5,0.2-2.3v-5.6c0-0.9-0.2-0.9-0.7-1v-0.2c0.5-0.2,1.1-0.4,1.4-0.6c0.1-0.1,0.2-0.1,0.3-0.1      c0.1,0,0.1,0.1,0.1,0.2V40.4z" fill="#004A97"/></g></g><g><g><path d="M1,53h0.1c0.3,0,0.5,0,0.5-0.4v-3.7c0-0.4-0.3-0.4-0.5-0.4H1v-0.2c0.3,0,0.7,0,1.1,0c0.4,0,0.8,0,1.1,0      v0.2H3.1c-0.3,0-0.5,0-0.5,0.4v3.7C2.6,53,2.8,53,3.1,53h0.1v0.2c-0.3,0-0.8,0-1.1,0c-0.3,0-0.8,0-1,0V53z" fill="#006AC9"/></g></g><g><g><path d="M3.2,53.2v-0.2H3.1c-0.3,0-0.6,0-0.6-0.4v-3.7c0-0.4,0.3-0.4,0.6-0.4h0.1v-0.2c-0.3,0-0.7,0-1.1,0      c-0.3,0-0.7,0-1,0v0.2h0.1c0.3,0,0.6,0,0.6,0.4v3.7c0,0.4-0.3,0.4-0.6,0.4H1.1v0.2c0.3,0,0.7,0,1,0C2.4,53.2,2.8,53.2,3.2,53.2       M3.2,53.3c-0.3,0-0.8,0-1.1,0c-0.3,0-0.8,0-1,0h0v0V53v0h0h0.1c0.3,0,0.5,0,0.5-0.4v-3.7c0-0.4-0.2-0.4-0.5-0.4H1v0v-0.2h0      c0.3,0,0.7,0,1.1,0c0.4,0,0.8,0,1.1,0h0v0v0.2h0H3.1c-0.3,0-0.5,0-0.5,0.4v3.7C2.6,53,2.8,53,3.1,53h0.1v0L3.2,53.3L3.2,53.3z" fill="#006AC9"/></g></g><g><g><path d="M8.1,51.8L8.1,51.8l0-2.7c0-0.6-0.4-0.7-0.6-0.7H7.3v-0.2c0.3,0,0.7,0,1,0c0.3,0,0.6,0,0.9,0v0.2H9.1      c-0.3,0-0.6,0.1-0.6,0.9v3.2c0,0.2,0,0.5,0,0.7H8.2l-3.7-4.1v2.9c0,0.6,0.1,0.8,0.7,0.8h0.1v0.2c-0.3,0-0.6,0-0.9,0      c-0.3,0-0.6,0-1,0V53h0.1c0.5,0,0.6-0.3,0.6-0.9v-3c0-0.4-0.3-0.6-0.6-0.6H3.5v-0.2c0.3,0,0.6,0,0.8,0c0.2,0,0.4,0,0.6,0      L8.1,51.8z" fill="#006AC9"/></g></g><g><g><path d="M8.1,51.8L8.1,51.8L8.1,51.8L8.1,51.8z M8.1,51.8L8.1,51.8L8.1,51.8z M8.2,53.3h0.2c0-0.2,0-0.5,0-0.7      v-3.2c0-0.9,0.4-0.9,0.7-0.9h0.1v-0.2c-0.3,0-0.6,0-0.8,0c-0.3,0-0.6,0-1,0l0,0.2h0.1c0.2,0,0.7,0.1,0.7,0.7l0,2.7l0,0l0,0      l-3.2-3.6c-0.2,0-0.4,0-0.6,0c-0.3,0-0.5,0-0.8,0l0,0.2h0.1c0.3,0,0.7,0.3,0.7,0.7v3c0,0.6-0.2,0.9-0.7,0.9l-0.1,0v0.2      c0.3,0,0.6,0,0.9,0c0.3,0,0.6,0,0.9,0v-0.2H5.2c-0.6,0-0.7-0.2-0.7-0.9v-3L8.2,53.3z M8.5,53.4l-0.3,0l-3.6-4v2.9      c0,0.6,0.1,0.8,0.6,0.8h0.2v0v0.2h0c-0.3,0-0.6,0-0.9,0c-0.3,0-0.6,0-1,0h0v0V53h0h0.1c0.5,0,0.6-0.3,0.6-0.9v-3      c0-0.4-0.3-0.6-0.6-0.6H3.4v0v-0.2h0c0.3,0,0.6,0,0.8,0c0.2,0,0.4,0,0.7,0l3.1,3.5v-2.6c0-0.6-0.4-0.6-0.6-0.6H7.3v0v-0.2h0      c0.3,0,0.7,0,1,0c0.3,0,0.6,0,0.9,0h0v0v0.2h0H9.1c-0.3,0-0.6,0-0.6,0.9v3.2C8.5,52.9,8.5,53.1,8.5,53.4L8.5,53.4L8.5,53.4z" fill="#006AC9"/></g></g><g><g><path d="M10.3,48.6c-0.5,0-0.6,0.1-0.7,0.6H9.4c0-0.2,0.1-0.4,0.1-0.6c0-0.2,0-0.4,0-0.6h0.2      c0.1,0.2,0.2,0.2,0.4,0.2h3.7c0.2,0,0.4,0,0.4-0.2l0.2,0c0,0.2-0.1,0.4-0.1,0.6c0,0.2,0,0.4,0,0.6l-0.2,0.1c0-0.3,0-0.7-0.5-0.7      h-1.2v3.8c0,0.5,0.2,0.6,0.6,0.6h0.1v0.2c-0.3,0-0.8,0-1.2,0c-0.4,0-0.9,0-1.2,0V53h0.1c0.4,0,0.6,0,0.6-0.6v-3.8H10.3z" fill="#006AC9"/></g></g><g><g><path d="M13.1,53.3c-0.3,0-0.8,0-1.2,0c-0.4,0-0.9,0-1.2,0h0v0V53h0h0.1c0.4,0,0.6,0,0.6-0.6v-3.8h-1.1v0v0h1.2      v3.8c0,0.6-0.2,0.6-0.6,0.6h-0.1v0.2c0.3,0,0.8,0,1.2,0C12.3,53.2,12.8,53.2,13.1,53.3l0-0.2H13c-0.3,0-0.6-0.1-0.6-0.6v-3.8      h1.2c0.5,0,0.5,0.4,0.6,0.7l0.2-0.1c0-0.2,0-0.4,0-0.6c0-0.2,0-0.4,0.1-0.5l-0.1,0c0,0.2-0.2,0.2-0.4,0.2h-3.7h0      c-0.2,0-0.4,0-0.4-0.2H9.6c0,0.2,0,0.4,0,0.6c0,0.2-0.1,0.4-0.1,0.6h0.2c0.1-0.5,0.2-0.7,0.7-0.6v0v0c-0.5,0-0.5,0.1-0.6,0.6      l0,0h0H9.4l0,0c0-0.2,0.1-0.4,0.1-0.6c0-0.2,0-0.4,0-0.6v0h0h0.2l0,0c0,0.2,0.2,0.2,0.4,0.2h0h3.7c0.2,0,0.3,0,0.4-0.2l0,0l0,0      l0.2,0l0,0c0,0.2-0.1,0.4-0.1,0.6c0,0.2,0,0.4,0,0.6v0l0,0L14,49.4l0,0c0-0.3,0-0.7-0.5-0.7h-1.1v3.8c0,0.5,0.2,0.6,0.6,0.6h0.2      v0L13.1,53.3L13.1,53.3z" fill="#006AC9"/></g></g><g><g><path d="M14.6,53h0.1c0.3,0,0.5,0,0.5-0.4v-3.7c0-0.4-0.3-0.4-0.5-0.4h-0.1v-0.2c0.4,0,1.2,0,1.8,0      c0.6,0,1.3,0,1.8,0c0,0.3,0,0.8,0,1.1L18,49.4c0-0.5-0.1-0.8-0.9-0.8h-1v1.9H17c0.4,0,0.5-0.2,0.6-0.6h0.2c0,0.3,0,0.6,0,0.8      c0,0.3,0,0.5,0,0.8l-0.2,0c0-0.4-0.1-0.7-0.6-0.7h-0.9v1.7c0,0.5,0.4,0.5,0.9,0.5c0.9,0,1.2-0.1,1.5-0.9l0.2,0      c-0.1,0.4-0.2,0.8-0.2,1.1c-0.5,0-1.3,0-1.9,0c-0.6,0-1.5,0-1.9,0V53z" fill="#006AC9"/></g></g><g><g><path d="M18.4,53.2c0.1-0.4,0.1-0.7,0.2-1.1l-0.1,0C18.3,52.9,17.9,53,17,53c-0.4,0-0.9,0-0.9-0.5v-1.7H17      c0.5,0,0.5,0.3,0.6,0.7l0.2,0c0-0.3,0-0.5,0-0.8c0-0.3,0-0.5,0-0.8h-0.2c0,0.4-0.2,0.6-0.6,0.6h-0.9v-1.9h1      c0.7,0,0.9,0.4,0.9,0.8l0.2,0c0-0.2,0-0.5,0-0.7c0-0.1,0-0.2,0-0.3c-0.5,0-1.2,0-1.8,0c-0.6,0-1.3,0-1.7,0v0.2h0.1      c0.3,0,0.6,0,0.6,0.4v3.7c0,0.4-0.3,0.4-0.6,0.4h-0.1v0.2c0.4,0,1.2,0,1.9,0C17.1,53.2,17.9,53.2,18.4,53.2 M18.4,53.3      c-0.5,0-1.3,0-1.9,0c-0.6,0-1.5,0-1.9,0h0v0V53v0h0h0.1c0.3,0,0.5,0,0.5-0.4v-3.7c0-0.3-0.2-0.4-0.5-0.4h-0.1v0v-0.2h0      c0.4,0,1.2,0,1.8,0c0.6,0,1.3,0,1.8,0h0l0,0c0,0.1,0,0.2,0,0.4c0,0.2,0,0.5,0,0.7v0l0,0L18,49.5l0,0c0-0.5-0.1-0.8-0.8-0.8h-1      v1.8H17c0.4,0,0.5-0.2,0.5-0.6l0,0h0h0.2v0c0,0.3,0,0.6,0,0.8c0,0.3,0,0.5,0,0.8v0l0,0l-0.2,0l0,0c0-0.4-0.1-0.7-0.5-0.7h-0.8      v1.6c0,0.4,0.4,0.4,0.8,0.4c0.9,0,1.2,0,1.4-0.8l0,0l0,0l0.2,0.1l0,0C18.6,52.5,18.5,52.9,18.4,53.3L18.4,53.3L18.4,53.3z" fill="#006AC9"/></g></g><g><g><path d="M20.5,50.7h0.3c0.7,0,1.1-0.3,1.1-1.1c0-0.6-0.4-1-1-1c-0.2,0-0.3,0-0.4,0V50.7z M19.6,49      c0-0.5-0.3-0.5-0.5-0.5H19v-0.2c0.2,0,0.7,0,1.1,0c0.4,0,0.8,0,1.1,0c0.9,0,1.7,0.2,1.7,1.3c0,0.6-0.4,1-1,1.3l1.2,1.8      c0.2,0.3,0.3,0.4,0.7,0.4v0.2c-0.2,0-0.5,0-0.7,0c-0.2,0-0.5,0-0.7,0c-0.5-0.7-1-1.5-1.5-2.3h-0.5v1.5c0,0.5,0.3,0.6,0.6,0.6      h0.1v0.2c-0.4,0-0.8,0-1.2,0c-0.3,0-0.7,0-1,0V53h0.1c0.3,0,0.5-0.1,0.5-0.4V49z" fill="#006AC9"/></g></g><g><g><path d="M20.9,50.7c0.7,0,1.1-0.2,1.1-1.1c0-0.6-0.4-1-1-1c-0.2,0-0.3,0-0.4,0v2.1H20.9z M20.5,50.7L20.5,50.7      l0-2.2l0,0c0.1,0,0.2,0,0.4,0c0.6,0,1.1,0.4,1.1,1.1c0,0.9-0.4,1.1-1.1,1.1H20.5z M20.5,50.9H21l0,0c0.5,0.8,0.9,1.6,1.5,2.3      c0.2,0,0.4,0,0.7,0c0.2,0,0.5,0,0.7,0v-0.2c-0.3,0-0.5-0.1-0.7-0.4l-1.2-1.9l0,0c0.6-0.2,1-0.6,1-1.2c0-1-0.8-1.2-1.7-1.2      c-0.4,0-0.7,0-1.1,0c-0.4,0-0.8,0-1.1,0v0.2h0.1c0.2,0,0.5,0,0.5,0.6v3.6c0,0.3-0.3,0.4-0.5,0.4H19v0.2c0.3,0,0.7,0,1,0      c0.4,0,0.8,0,1.2,0v-0.2h-0.1c-0.3,0-0.6,0-0.6-0.6L20.5,50.9L20.5,50.9z M23.9,53.3c-0.2,0-0.5,0-0.7,0c-0.2,0-0.4,0-0.7,0      c-0.5-0.7-1-1.5-1.5-2.3h-0.4v1.5c0,0.5,0.2,0.5,0.6,0.5h0.2v0v0.2h0c-0.4,0-0.8,0-1.2,0c-0.3,0-0.7,0-1,0h0v0V53h0h0.1      c0.3,0,0.5-0.1,0.5-0.4V49c0-0.5-0.3-0.5-0.5-0.5H19v0v-0.2h0c0.2,0,0.7,0,1.1,0c0.4,0,0.8,0,1.1,0c0.9,0,1.7,0.3,1.7,1.3      c0,0.6-0.4,1-1,1.3l1.2,1.8c0.2,0.3,0.3,0.4,0.7,0.4l0,0v0L23.9,53.3L23.9,53.3z" fill="#006AC9"/></g></g><g><g><path d="M28.7,51.8L28.7,51.8l0-2.7c0-0.6-0.4-0.7-0.6-0.7h-0.2v-0.2c0.3,0,0.7,0,1,0c0.3,0,0.6,0,0.9,0v0.2      h-0.1c-0.3,0-0.6,0.1-0.6,0.9v3.2c0,0.2,0,0.5,0,0.7h-0.3l-3.7-4.1v2.9c0,0.6,0.1,0.8,0.7,0.8H26v0.2c-0.3,0-0.6,0-0.9,0      c-0.3,0-0.6,0-1,0V53h0.1c0.5,0,0.6-0.3,0.6-0.9v-3c0-0.4-0.3-0.6-0.7-0.6h-0.1v-0.2c0.3,0,0.5,0,0.8,0c0.2,0,0.4,0,0.6,0      L28.7,51.8z" fill="#006AC9"/></g></g><g><g><path d="M28.7,51.8L28.7,51.8L28.7,51.8L28.7,51.8z M28.7,51.8L28.7,51.8L28.7,51.8z M28.8,53.3h0.2      c0-0.2,0-0.5,0-0.7v-3.2c0-0.9,0.4-0.9,0.7-0.9h0.1v-0.2c-0.3,0-0.6,0-0.8,0c-0.3,0-0.6,0-1,0v0.2h0.1c0.2,0,0.7,0.1,0.7,0.7      l0,2.7l0,0l0,0l-3.2-3.6c-0.2,0-0.4,0-0.6,0c-0.3,0-0.5,0-0.8,0v0.2h0.1c0.3,0,0.7,0.3,0.7,0.7v3c0,0.6-0.2,0.9-0.7,0.9l-0.1,0      v0.2c0.3,0,0.6,0,0.9,0c0.3,0,0.6,0,0.9,0v-0.2h-0.1c-0.6,0-0.7-0.2-0.7-0.9v-3L28.8,53.3z M29.1,53.4l-0.3,0l-3.6-4v2.9      c0,0.6,0.1,0.8,0.6,0.8H26v0v0.2h0c-0.3,0-0.6,0-0.9,0c-0.3,0-0.6,0-1,0h0v0V53h0h0.1c0.5,0,0.6-0.3,0.6-0.9v-3      c0-0.4-0.3-0.6-0.6-0.6H24v0v-0.2h0c0.3,0,0.6,0,0.8,0c0.2,0,0.4,0,0.7,0l3.1,3.5v-2.6c0-0.6-0.4-0.6-0.6-0.6h-0.2v0v-0.2h0      c0.3,0,0.7,0,1,0c0.3,0,0.6,0,0.9,0h0v0v0.2h0h-0.1c-0.3,0-0.6,0-0.6,0.9v3.2C29.1,52.9,29.1,53.1,29.1,53.4L29.1,53.4      L29.1,53.4z" fill="#006AC9"/></g></g><g><g><path d="M32,49.1L32,49.1l-0.7,2h1.3L32,49.1z M31,52.2c-0.1,0.2-0.2,0.4-0.2,0.6c0,0.2,0.3,0.2,0.5,0.2h0.1v0.2      c-0.3,0-0.6,0-0.9,0c-0.3,0-0.5,0-0.8,0V53h0c0.3,0,0.5-0.2,0.6-0.5l1.1-3.3c0.1-0.3,0.2-0.6,0.3-0.9c0.2-0.1,0.5-0.2,0.7-0.3      c0,0,0,0,0.1,0c0,0,0,0,0,0c0,0.1,0,0.1,0.1,0.2L34,52c0.1,0.2,0.2,0.5,0.3,0.7c0.1,0.2,0.2,0.3,0.5,0.3h0v0.2c-0.3,0-0.6,0-1,0      c-0.4,0-0.7,0-1.1,0V53h0.1c0.2,0,0.4,0,0.4-0.2c0-0.1-0.1-0.3-0.1-0.5l-0.3-0.8h-1.6L31,52.2z" fill="#006AC9"/></g></g><g><g><path d="M32,49.1L32,49.1L32,49.1z M31.4,51.1h1.3L32,49.1L31.4,51.1z M31.3,51.1L32,49h0h0v0l0,0l0,0v0h0      l0.7,2.1H31.3z M32.7,53.2c0.4,0,0.7,0,1,0c0.3,0,0.6,0,1,0v-0.2h0c-0.2,0-0.4-0.1-0.5-0.3C34.1,52.6,34,52.3,34,52l-1.3-3.7      c0-0.1,0-0.1-0.1-0.2c0,0,0,0,0,0h0c0,0,0,0,0,0c-0.1,0.1-0.4,0.2-0.6,0.3c0,0.3-0.2,0.6-0.3,0.9l-1.1,3.3      c-0.1,0.3-0.4,0.5-0.7,0.5h0v0.2c0.2,0,0.5,0,0.7,0c0.3,0,0.6,0,0.8,0v-0.2h0c-0.2,0-0.6,0-0.6-0.3c0-0.1,0.1-0.3,0.2-0.6l0,0      l0,0l0.2-0.8h1.7l0.3,0.8c0.1,0.2,0.1,0.4,0.1,0.5c0,0.2-0.3,0.2-0.5,0.2h0V53.2z M34.8,53.3c-0.3,0-0.6,0-1,0      c-0.4,0-0.7,0-1.1,0l0,0v0V53h0h0.1c0.2,0,0.4,0,0.4-0.2c0-0.1-0.1-0.3-0.1-0.5l-0.3-0.8h-1.6L31,52.2c-0.1,0.2-0.2,0.4-0.2,0.5      c0,0.2,0.3,0.2,0.5,0.2h0.1v0v0.2l0,0c-0.3,0-0.6,0-0.9,0c-0.3,0-0.5,0-0.8,0l0,0v0V53h0h0c0.3,0,0.5-0.2,0.6-0.4l1.1-3.3      c0.1-0.3,0.2-0.6,0.3-0.9c0.2-0.1,0.5-0.2,0.6-0.3c0,0,0,0,0.1,0c0,0,0.1,0,0.1,0c0,0.1,0,0.1,0.1,0.2L34,52      c0.1,0.3,0.2,0.5,0.3,0.7c0.1,0.2,0.2,0.3,0.4,0.3h0.1v0L34.8,53.3L34.8,53.3z" fill="#006AC9"/></g></g><g><g><path d="M35.1,48.6c-0.5,0-0.6,0.1-0.7,0.6h-0.2c0-0.2,0.1-0.4,0.1-0.6c0-0.2,0-0.4,0-0.6h0.2      c0.1,0.2,0.2,0.2,0.4,0.2h3.7c0.2,0,0.4,0,0.4-0.2l0.2,0c0,0.2-0.1,0.4-0.1,0.6c0,0.2,0,0.4,0,0.6l-0.2,0.1      c0-0.3-0.1-0.7-0.5-0.7h-1.2v3.8c0,0.5,0.2,0.6,0.6,0.6h0.1v0.2c-0.3,0-0.8,0-1.2,0c-0.4,0-0.9,0-1.2,0V53h0.1      c0.4,0,0.6,0,0.6-0.6v-3.8H35.1z" fill="#006AC9"/></g></g><g><g><path d="M37.9,53.3c-0.3,0-0.8,0-1.2,0c-0.4,0-0.9,0-1.2,0h0v0V53h0h0.1c0.4,0,0.5,0,0.6-0.6v-3.8h-1.1v0v0h1.2      v3.8c0,0.6-0.2,0.6-0.6,0.6h-0.1v0.2c0.3,0,0.8,0,1.2,0C37.1,53.2,37.6,53.2,37.9,53.3l0-0.2h-0.1c-0.3,0-0.6-0.1-0.6-0.6v-3.8      h1.2c0.5,0,0.5,0.4,0.6,0.7l0.2-0.1c0-0.2,0-0.4,0-0.6c0-0.2,0-0.4,0.1-0.5l-0.1,0c0,0.2-0.2,0.2-0.4,0.2h-3.7h0      c-0.2,0-0.3,0-0.4-0.2h-0.1c0,0.2,0,0.4,0,0.6c0,0.2-0.1,0.4-0.1,0.6h0.2c0.1-0.5,0.2-0.7,0.7-0.6v0v0c-0.5,0-0.5,0.1-0.6,0.6      l0,0h0h-0.3l0,0c0-0.2,0.1-0.4,0.1-0.6c0-0.2,0-0.4,0-0.6v0h0h0.2l0,0c0,0.2,0.2,0.2,0.4,0.2c0,0,0,0,0,0h3.7      c0.2,0,0.3,0,0.4-0.2v0l0,0l0.2,0l0,0c0,0.2-0.1,0.4-0.1,0.6c0,0.2,0,0.4,0,0.6v0l0,0l-0.3,0.1l0,0c0-0.3,0-0.7-0.5-0.7h-1.1      v3.8c0,0.5,0.2,0.6,0.6,0.6h0.2v0L37.9,53.3L37.9,53.3z" fill="#006AC9"/></g></g><g><g><path d="M39.4,53L39.4,53c0.4,0,0.6,0,0.6-0.4v-3.7c0-0.4-0.3-0.4-0.5-0.4h-0.1v-0.2c0.3,0,0.7,0,1.1,0      c0.4,0,0.8,0,1.1,0v0.2h-0.1c-0.3,0-0.5,0-0.5,0.4v3.7c0,0.4,0.3,0.4,0.5,0.4h0.1v0.2c-0.3,0-0.8,0-1.1,0c-0.3,0-0.8,0-1,0V53z" fill="#006AC9"/></g></g><g><g><path d="M41.6,53.2v-0.2h-0.1c-0.3,0-0.6,0-0.6-0.4v-3.7c0-0.4,0.3-0.4,0.6-0.4h0.1v-0.2c-0.3,0-0.7,0-1.1,0      c-0.3,0-0.7,0-1,0v0.2h0.1c0.3,0,0.6,0,0.6,0.4v3.7c0,0.4-0.3,0.4-0.6,0.4h-0.1v0.2c0.3,0,0.7,0,1,0      C40.8,53.2,41.2,53.2,41.6,53.2 M41.6,53.3c-0.3,0-0.8,0-1.1,0c-0.3,0-0.8,0-1,0h0v0V53v0h0h0.1c0.3,0,0.5,0,0.5-0.4v-3.7      c0-0.3-0.2-0.4-0.5-0.4h-0.1v0v-0.2h0c0.3,0,0.7,0,1.1,0c0.4,0,0.8,0,1.1,0h0v0v0.2h0h-0.1c-0.3,0-0.5,0-0.5,0.4v3.7      c0,0.3,0.2,0.4,0.5,0.4h0.1v0L41.6,53.3L41.6,53.3z" fill="#006AC9"/></g></g><g><g><path d="M44.6,53c1.4,0,1.6-1.2,1.6-2.3c0-1-0.6-2.3-1.7-2.3c-1.3,0-1.6,1.1-1.6,2.1C42.8,51.8,43.4,53,44.6,53       M44.5,48.2c1.5,0,2.7,0.9,2.7,2.5c0,1.6-1.2,2.7-2.7,2.7c-1.5,0-2.7-1-2.7-2.6C41.8,49.3,43,48.2,44.5,48.2" fill="#006AC9"/></g></g><g><g><path d="M42.8,50.5c0-1,0.4-2.1,1.7-2.1c1.2,0,1.8,1.3,1.8,2.3c0,1-0.2,2.3-1.7,2.3v0v0c1.4,0,1.6-1.2,1.6-2.2      c0-1-0.6-2.3-1.7-2.3C43.2,48.5,42.9,49.6,42.8,50.5c0.1,1.3,0.6,2.5,1.8,2.5v0v0C43.4,53.1,42.8,51.8,42.8,50.5 M41.8,50.8      c0-1.5,1.2-2.7,2.7-2.7v0v0C43,48.2,41.9,49.3,41.8,50.8c0.1,1.5,1.2,2.5,2.7,2.5c1.5,0,2.7-1.1,2.7-2.7c0-1.5-1.2-2.4-2.7-2.4      v0v0c1.5,0,2.8,1,2.8,2.5c0,1.7-1.2,2.8-2.7,2.8C43,53.4,41.8,52.4,41.8,50.8" fill="#006AC9"/></g></g><g><g><path d="M52,51.8L52,51.8l0-2.7c0-0.6-0.4-0.7-0.6-0.7h-0.2v-0.2c0.3,0,0.7,0,1,0c0.3,0,0.6,0,0.9,0v0.2H53      c-0.3,0-0.6,0.1-0.6,0.9v3.2c0,0.2,0,0.5,0,0.7h-0.3l-3.7-4.1v2.9c0,0.6,0.1,0.8,0.7,0.8h0.1v0.2c-0.3,0-0.6,0-0.9,0      c-0.3,0-0.6,0-1,0V53h0.1c0.5,0,0.6-0.3,0.6-0.9v-3c0-0.4-0.3-0.6-0.6-0.6h-0.1v-0.2c0.3,0,0.5,0,0.8,0c0.2,0,0.4,0,0.6,0      L52,51.8z" fill="#006AC9"/></g></g><g><g><path d="M52,51.8L52,51.8L52,51.8L52,51.8z M52,51.8L52,51.8L52,51.8z M52.1,53.3h0.2c0-0.2,0-0.5,0-0.7v-3.2      c0-0.9,0.4-0.9,0.7-0.9h0.1v-0.2c-0.3,0-0.6,0-0.8,0c-0.3,0-0.6,0-1,0v0.2h0.1c0.2,0,0.7,0.1,0.7,0.7l0,2.7l0,0l0,0l-3.2-3.6      c-0.2,0-0.4,0-0.6,0c-0.3,0-0.5,0-0.8,0v0.2h0.1c0.3,0,0.7,0.3,0.7,0.7v3c0,0.6-0.2,0.9-0.7,0.9l-0.1,0v0.2c0.3,0,0.6,0,0.9,0      c0.3,0,0.6,0,0.9,0v-0.2h-0.1c-0.6,0-0.7-0.2-0.7-0.9v-3L52.1,53.3z M52.4,53.4l-0.3,0l-3.6-4v2.9c0,0.6,0.1,0.8,0.6,0.8h0.2v0      v0.2h0c-0.3,0-0.6,0-0.9,0c-0.3,0-0.6,0-1,0h0v0V53h0h0.1c0.5,0,0.6-0.3,0.6-0.9v-3c0-0.4-0.3-0.6-0.6-0.6h-0.1v0v-0.2h0      c0.3,0,0.6,0,0.8,0c0.2,0,0.4,0,0.7,0l3.1,3.5v-2.6c0-0.6-0.4-0.6-0.6-0.6h-0.2v0v-0.2h0c0.3,0,0.7,0,1,0c0.3,0,0.6,0,0.9,0h0v0      v0.2h0H53c-0.3,0-0.6,0-0.6,0.9v3.2C52.4,52.9,52.4,53.1,52.4,53.4L52.4,53.4L52.4,53.4z" fill="#006AC9"/></g></g><g><g><path d="M55.3,49.1L55.3,49.1l-0.7,2H56L55.3,49.1z M54.3,52.2c-0.1,0.2-0.2,0.4-0.2,0.6c0,0.2,0.3,0.2,0.5,0.2      h0.1v0.2c-0.3,0-0.6,0-0.9,0c-0.3,0-0.5,0-0.8,0V53h0c0.3,0,0.5-0.2,0.6-0.5l1.1-3.3c0.1-0.3,0.2-0.6,0.3-0.9      c0.2-0.1,0.5-0.2,0.7-0.3c0,0,0,0,0.1,0c0,0,0,0,0,0c0,0.1,0,0.1,0.1,0.2l1.3,3.7c0.1,0.2,0.2,0.5,0.3,0.7      C57.6,53,57.8,53,58,53h0v0.2c-0.3,0-0.6,0-1,0c-0.3,0-0.7,0-1.1,0V53h0.1c0.2,0,0.4,0,0.4-0.2c0-0.1-0.1-0.3-0.1-0.5l-0.3-0.8      h-1.6L54.3,52.2z" fill="#006AC9"/></g></g><g><g><path d="M55.3,49.1L55.3,49.1L55.3,49.1z M54.7,51.1h1.2l-0.6-1.9L54.7,51.1z M54.6,51.1l0.7-2.1h0h0v0l0,0l0,0      v0h0l0.7,2.1H54.6z M56,53.2c0.4,0,0.7,0,1,0c0.3,0,0.6,0,1,0l0-0.2h0c-0.2,0-0.4-0.1-0.5-0.3c-0.1-0.2-0.2-0.5-0.3-0.7      l-1.3-3.7c0-0.1,0-0.1-0.1-0.2c0,0,0,0,0,0h0c0,0,0,0,0,0c-0.1,0.1-0.4,0.2-0.6,0.3c0,0.3-0.2,0.6-0.3,0.9l-1.1,3.3      c-0.1,0.3-0.4,0.5-0.6,0.5h0v0.2c0.2,0,0.5,0,0.7,0c0.3,0,0.6,0,0.8,0v-0.2h0c-0.2,0-0.6,0-0.6-0.3c0-0.1,0.1-0.3,0.2-0.6l0,0      l0,0l0.2-0.8h1.7l0.3,0.8c0.1,0.2,0.1,0.4,0.1,0.5c0,0.2-0.3,0.2-0.5,0.2h0V53.2z M58.1,53.3c-0.3,0-0.6,0-1,0      c-0.3,0-0.7,0-1.1,0l0,0v0V53h0h0.1c0.2,0,0.4,0,0.4-0.2c0-0.1-0.1-0.3-0.1-0.5l-0.3-0.8h-1.6l-0.2,0.7      c-0.1,0.2-0.2,0.4-0.2,0.5c0,0.2,0.3,0.2,0.5,0.2h0.1v0v0.2l0,0c-0.3,0-0.6,0-0.9,0c-0.3,0-0.5,0-0.8,0l0,0v0V53h0h0      c0.3,0,0.5-0.2,0.6-0.4l1.1-3.3c0.1-0.3,0.2-0.6,0.3-0.9c0.2-0.1,0.5-0.2,0.7-0.3c0,0,0,0,0.1,0c0,0,0.1,0,0.1,0      c0,0.1,0,0.1,0.1,0.2l1.3,3.7c0.1,0.3,0.2,0.5,0.3,0.7c0.1,0.2,0.2,0.3,0.4,0.3h0.1v0L58.1,53.3L58.1,53.3z" fill="#006AC9"/></g></g><g><g><path d="M59.9,52.6c0,0.3,0.2,0.4,0.4,0.4c0.3,0,0.6,0,0.9,0c0.3,0,0.6-0.2,0.7-0.4c0.1-0.2,0.2-0.4,0.2-0.5h0.2      c-0.1,0.4-0.2,0.8-0.3,1.2c-0.6,0-1.3,0-1.9,0s-1.3,0-1.9,0V53h0.1c0.3,0,0.5,0,0.5-0.5v-3.7c0-0.4-0.3-0.4-0.5-0.4h-0.1v-0.2      c0.4,0,0.7,0,1.1,0c0.4,0,0.7,0,1.1,0v0.2h-0.2c-0.3,0-0.5,0-0.5,0.4V52.6z" fill="#006AC9"/></g></g><g><g><path d="M62,53.2c0.1-0.4,0.2-0.8,0.3-1.1h-0.1c0,0.2-0.1,0.3-0.2,0.5c-0.1,0.2-0.4,0.4-0.7,0.4      c-0.2,0-0.4,0-0.5,0c-0.1,0-0.3,0-0.4,0c-0.2,0-0.5-0.1-0.5-0.4v-3.7c0-0.4,0.2-0.4,0.5-0.4h0.1v-0.2c-0.4,0-0.7,0-1.1,0      c-0.4,0-0.7,0-1.1,0v0.2h0.1c0.3,0,0.6,0,0.6,0.4v3.7c0,0.5-0.3,0.5-0.6,0.5h-0.1v0.2c0.6,0,1.2,0,1.9,0      C60.8,53.2,61.4,53.2,62,53.2 M62.1,53.3c-0.6,0-1.3,0-1.9,0c-0.6,0-1.3,0-1.9,0h0v0V53h0h0.1c0.3,0,0.5,0,0.5-0.4v-3.7      c0-0.3-0.2-0.4-0.5-0.4h-0.1v0v-0.2h0c0.4,0,0.8,0,1.1,0c0.4,0,0.7,0,1.1,0h0v0v0.2h0h-0.2c-0.3,0-0.5,0-0.5,0.4v3.7      c0,0.3,0.2,0.3,0.4,0.4c0.1,0,0.3,0,0.4,0c0.2,0,0.4,0,0.5,0c0.3,0,0.5-0.2,0.7-0.4c0.1-0.2,0.2-0.3,0.2-0.5l0,0h0h0.2l0,0      C62.3,52.5,62.2,52.9,62.1,53.3L62.1,53.3L62.1,53.3z" fill="#006AC9"/></g></g><g><g><path d="M62.1,48.8L62.1,48.8c0.2,0,0.2-0.1,0.2-0.2c0-0.1-0.1-0.2-0.1-0.2h-0.1V48.8z M61.9,49.2L61.9,49.2      c0.1,0,0.1,0,0.1-0.1v-0.6c0-0.1,0-0.1-0.1-0.1v0h0.4c0.1,0,0.3,0.1,0.3,0.2c0,0.1-0.1,0.2-0.2,0.2l0.1,0.2      c0.1,0.1,0.1,0.2,0.2,0.2v0h-0.1c-0.1,0-0.1-0.1-0.3-0.3h-0.1v0.2c0,0.1,0,0,0.1,0.1v0H61.9z M62.2,49.4c0.3,0,0.6-0.3,0.6-0.6      c0-0.3-0.3-0.6-0.6-0.6c-0.3,0-0.6,0.3-0.6,0.6C61.7,49.1,61.9,49.4,62.2,49.4 M62.2,48.1c0.4,0,0.8,0.3,0.8,0.8      s-0.3,0.7-0.8,0.7s-0.8-0.3-0.8-0.7S61.8,48.1,62.2,48.1" fill="#006AC9"/></g></g></g><g><path d="M45.3,21.1c0-3.2-1.3-6.1-3.5-8.4c-2.1-1.3-4.6-2.1-7.2-2.1h-5.8c-6.9,0-12.5,5.1-12.5,12.5    c0,3.1,1.2,5.9,3.1,8.1c2,1.4,4.4,2.4,7,2.8c-5.1-1.1-8.9-5.6-8.9-11.1c0-6.3,5.1-11.4,11.3-11.4c6.3,0,11.4,5.1,11.4,11.4    c0,6.2-4.9,11.2-11.1,11.3c0.2,0,0.3,0,0.5,0C38.2,34.3,45.3,28.4,45.3,21.1z" fill="#004A97"/></g><g><path d="M28.7,10.6c-6.9,0-12.5,5.1-12.5,12.5c0,3,1.1,5.8,3,7.9c0.1,0.1,0.2,0.2,0.3,0.3c2,1.4,4.3,2.3,6.9,2.8    c-5.1-1.1-8.9-5.6-8.9-11.1c0-6.3,5.1-11.4,11.3-11.4c6.3,0,11.4,5.1,11.4,11.4c0,6.2-4.9,11.2-11.1,11.3c0.2,0,0.3,0,0.5,0    c0.5,0,1,0,1.5-0.1c6.6-1.6,10.8-8.3,9.6-15.4c-0.6-3.3-2.2-6.1-4.5-8.1c-0.5-0.1-1-0.1-1.5-0.1H28.7z" fill="#006AC9"/></g></g></svg>