<?xml version="1.0" ?><!DOCTYPE svg  PUBLIC '-//W3C//DTD SVG 1.1//EN'  'http://www.w3.org/Graphics/SVG/1.1/DTD/svg11.dtd'><svg enable-background="new 0 0 64 64" height="64px" id="Layer_1" version="1.1" viewBox="0 0 64 64" width="64px" xml:space="preserve" xmlns="http://www.w3.org/2000/svg" xmlns:xlink="http://www.w3.org/1999/xlink"><g><g><g><g><polygon fill="#3C58BF" points="23.6,41 26.8,23 31.8,23 28.7,41     "/></g></g><g><g><polygon fill="#293688" points="23.6,41 27.7,23 31.8,23 28.7,41     "/></g></g><g><g><path d="M46.8,23.2c-1-0.4-2.6-0.8-4.6-0.8c-5,0-8.6,2.5-8.6,6.1c0,2.7,2.5,4.1,4.5,5c2,0.9,2.6,1.5,2.6,2.3      c0,1.2-1.6,1.8-3,1.8c-2,0-3.1-0.3-4.8-1l-0.7-0.3l-0.7,4.1c1.2,0.5,3.4,1,5.7,1c5.3,0,8.8-2.5,8.8-6.3c0-2.1-1.3-3.7-4.3-5      c-1.8-0.9-2.9-1.4-2.9-2.3c0-0.8,0.9-1.6,2.9-1.6c1.7,0,2.9,0.3,3.8,0.7l0.5,0.2L46.8,23.2L46.8,23.2z" fill="#3C58BF"/></g></g><g><g><path d="M46.8,23.2c-1-0.4-2.6-0.8-4.6-0.8c-5,0-7.7,2.5-7.7,6.1c0,2.7,1.6,4.1,3.6,5c2,0.9,2.6,1.5,2.6,2.3      c0,1.2-1.6,1.8-3,1.8c-2,0-3.1-0.3-4.8-1l-0.7-0.3l-0.7,4.1c1.2,0.5,3.4,1,5.7,1c5.3,0,8.8-2.5,8.8-6.3c0-2.1-1.3-3.7-4.3-5      c-1.8-0.9-2.9-1.4-2.9-2.3c0-0.8,0.9-1.6,2.9-1.6c1.7,0,2.9,0.3,3.8,0.7l0.5,0.2L46.8,23.2L46.8,23.2z" fill="#293688"/></g></g><g><g><path d="M55.4,23c-1.2,0-2.1,0.1-2.6,1.3L45.3,41h5.4l1-3h6.4l0.6,3h4.8l-4.2-18H55.4z M53.1,35      c0.3-0.9,2-5.3,2-5.3c0,0,0.4-1.1,0.7-1.8l0.3,1.7c0,0,1,4.5,1.2,5.5H53.1L53.1,35z" fill="#3C58BF"/></g></g><g><g><path d="M56.6,23c-1.2,0-2.1,0.1-2.6,1.3L45.3,41h5.4l1-3h6.4l0.6,3h4.8l-4.2-18H56.6z M53.1,35      c0.4-1,2-5.3,2-5.3c0,0,0.4-1.1,0.7-1.8l0.3,1.7c0,0,1,4.5,1.2,5.5H53.1L53.1,35z" fill="#293688"/></g></g><g><g><path d="M14.4,35.6L13.9,33c-0.9-3-3.8-6.3-7-7.9l4.5,16h5.4l8.1-18h-5.4L14.4,35.6z" fill="#3C58BF"/></g></g><g><g><path d="M14.4,35.6L13.9,33c-0.9-3-3.8-6.3-7-7.9l4.5,16h5.4l8.1-18h-4.4L14.4,35.6z" fill="#293688"/></g></g><g><g><path d="M0.5,23l0.9,0.2c6.4,1.5,10.8,5.3,12.5,9.8l-1.8-8.5c-0.3-1.2-1.2-1.5-2.3-1.5H0.5z" fill="#FFBC00"/></g></g><g><g><path d="M0.5,23L0.5,23c6.4,1.5,11.7,5.4,13.4,9.9l-1.7-7.1c-0.3-1.2-1.3-1.9-2.4-1.9L0.5,23z" fill="#F7981D"/></g></g><g><g><path d="M0.5,23L0.5,23c6.4,1.5,11.7,5.4,13.4,9.9L12.7,29c-0.3-1.2-0.7-2.4-2.1-2.9L0.5,23z" fill="#ED7C00"/></g></g></g><g><path d="M19.4,35L16,31.6l-1.6,3.8l-0.4-2.5c-0.9-3-3.8-6.3-7-7.9l4.5,16h5.4L19.4,35z" fill="#051244"/></g><g><polygon fill="#051244" points="28.7,41 24.4,36.6 23.6,41 28.7,41   "/></g><g><path d="M40.2,34.8L40.2,34.8c0.4,0.4,0.6,0.7,0.5,1.1c0,1.2-1.6,1.8-3,1.8c-2,0-3.1-0.3-4.8-1l-0.7-0.3l-0.7,4.1    c1.2,0.5,3.4,1,5.7,1c3.2,0,5.8-0.9,7.3-2.5L40.2,34.8z" fill="#051244"/></g><g><path d="M46,41h4.7l1-3h6.4l0.6,3h4.8l-1.7-7.3l-6-5.8l0.3,1.6c0,0,1,4.5,1.2,5.5h-4.2c0.4-1,2-5.3,2-5.3    c0,0,0.4-1.1,0.7-1.8" fill="#051244"/></g></g></svg>