<svg xmlns="http://www.w3.org/2000/svg" viewBox="0 0 460 40"><defs><style>.cls-1{fill:#5ec1ec;}.cls-2{fill:#5bbbe6;}.cls-13,.cls-3,.cls-7{fill:#fff;}.cls-4{fill:#56b1d9;}.cls-5{fill:#9bcee0;}.cls-6{fill:#5565af;}.cls-7{opacity:0.04;}.cls-13,.cls-7{isolation:isolate;}.cls-8{fill:#ea564b;}.cls-9{fill:#e9d419;}.cls-10{fill:#7684b7;}.cls-11{fill:#f3f4f4;}.cls-12{fill:#99cd76;}.cls-13{opacity:0.08;}.cls-14{fill:#f8f8f9;}.cls-15{fill:#009fda;}.cls-16{fill:#fff9f0;}.cls-17{fill:#414042;}.cls-18{fill:#e6a124;}.cls-19{fill:#f7f5f2;}</style></defs><title>Fichier 1_band</title><g id="Calque_2" data-name="Calque 2"><g id="Layer_1" data-name="Layer 1"><path class="cls-1" d="M220,35a5,5,0,0,1-5,5H165a5,5,0,0,1-5-5V5a5,5,0,0,1,5-5h50a5,5,0,0,1,5,5Z"/><path class="cls-2" d="M218.53,1.47A5,5,0,0,1,220,5V35a5,5,0,0,1-5,5H165a5,5,0,0,1-3.53-1.47Z"/><path class="cls-3" d="M177.55,24.92l-.46-1.74h-3l-.47,1.74h-2.76l3-9.32h3.35l3.07,9.32Zm-1-3.8-.4-1.52c-.09-.34-.21-.77-.34-1.31s-.22-.92-.26-1.15c0,.22-.11.57-.23,1.07s-.36,1.47-.75,2.93Z"/><path class="cls-3" d="M185.34,24.92l-1.9-6.68h-.06q.13,1.71.13,2.65v4H181.3V15.64h3.34l1.94,6.59h.05l1.9-6.59h3.35v9.28h-2.3V20.85c0-.21,0-.45,0-.7s0-.89.09-1.9h-.06l-1.87,6.67h-2.39Z"/><path class="cls-3" d="M199.12,24.92h-5.51V15.64h5.51v2h-3v1.46h2.78v2h-2.78v1.75h3Z"/><path class="cls-3" d="M209.1,24.92h-2.9L204.39,22l-1.79,2.9h-2.84l3.08-4.75-2.89-4.53h2.78l1.68,2.87L206,15.64h2.86l-2.94,4.73Z"/><path class="cls-3" d="M177.55,24.92l-.46-1.74h-3l-.47,1.74h-2.76l3-9.32h3.35l3.07,9.32Zm-1-3.8-.4-1.52c-.09-.34-.21-.77-.34-1.31s-.22-.92-.26-1.15c0,.22-.11.57-.23,1.07s-.36,1.47-.75,2.93Z"/><path class="cls-3" d="M185.34,24.92l-1.9-6.68h-.06q.13,1.71.13,2.65v4H181.3V15.64h3.34l1.94,6.59h.05l1.9-6.59h3.35v9.28h-2.3V20.85c0-.21,0-.45,0-.7s0-.89.09-1.9h-.06l-1.87,6.67h-2.39Z"/><path class="cls-3" d="M199.12,24.92h-5.51V15.64h5.51v2h-3v1.46h2.78v2h-2.78v1.75h3Z"/><path class="cls-3" d="M209.1,24.92h-2.9L204.39,22l-1.79,2.9h-2.84l3.08-4.75-2.89-4.53h2.78l1.68,2.87L206,15.64h2.86l-2.94,4.73Z"/><path class="cls-4" d="M190,0"/><path class="cls-5" d="M215,1a4,4,0,0,1,4,4V35a4,4,0,0,1-4,4H165a4,4,0,0,1-4-4V5a4,4,0,0,1,4-4h50m0-1H165a5,5,0,0,0-5,5V35a5,5,0,0,0,5,5h50a5,5,0,0,0,5-5V5a5,5,0,0,0-5-5Z"/><path class="cls-6" d="M140,35a5,5,0,0,1-5,5H85a5,5,0,0,1-5-5V5a5,5,0,0,1,5-5h50a5,5,0,0,1,5,5Z"/><path class="cls-7" d="M138.53,1.47A5,5,0,0,1,140,5V35a5,5,0,0,1-5,5H85a5,5,0,0,1-3.53-1.47Z"/><path class="cls-4" d="M110,0"/><path class="cls-8" d="M110,13.4a10,10,0,1,0,0,13.2,10,10,0,0,1,0-13.2Z"/><path class="cls-8" d="M110,13.4a10,10,0,0,0,0,13.2,10,10,0,0,0,0-13.2Z"/><path class="cls-9" d="M117.5,10a10,10,0,0,0-7.5,3.4,10.14,10.14,0,0,0-1.14,1.6h2.29a10,10,0,0,1,.87,2h-4a9.9,9.9,0,0,0-.42,2h4.88a9.69,9.69,0,0,1,.07,1,10,10,0,0,1-.05,1h-4.9a9.9,9.9,0,0,0,.42,2H112a10,10,0,0,1-.89,2h-2.29A10.16,10.16,0,0,0,110,26.6,10,10,0,1,0,117.5,10Z"/><path class="cls-10" d="M135,1a4,4,0,0,1,4,4V35a4,4,0,0,1-4,4H85a4,4,0,0,1-4-4V5a4,4,0,0,1,4-4h50m0-1H85a5,5,0,0,0-5,5V35a5,5,0,0,0,5,5h50a5,5,0,0,0,5-5V5a5,5,0,0,0-5-5Z"/><path class="cls-11" d="M300,35a5,5,0,0,1-5,5H245a5,5,0,0,1-5-5V5a5,5,0,0,1,5-5h50a5,5,0,0,1,5,5Z"/><path class="cls-3" d="M270,0"/><path class="cls-6" d="M257,30h-8V15c0-2.76,3.24-5,6-5h6V25C261,27.76,259.76,30,257,30Z"/><path class="cls-8" d="M271,30h-8V15c0-2.76,3.24-5,6-5h6V25C275,27.76,273.76,30,271,30Z"/><path class="cls-12" d="M285,30h-8V15c0-2.76,3.24-5,6-5h6V25C289,27.76,287.76,30,285,30Z"/><path class="cls-13" d="M298.53,1.47A5,5,0,0,1,300,5V35a5,5,0,0,1-5,5H245a5,5,0,0,1-3.53-1.47Z"/><path class="cls-14" d="M295,1a4,4,0,0,1,4,4V35a4,4,0,0,1-4,4H245a4,4,0,0,1-4-4V5a4,4,0,0,1,4-4h50m0-1H245a5,5,0,0,0-5,5V35a5,5,0,0,0,5,5h50a5,5,0,0,0,5-5V5a5,5,0,0,0-5-5Z"/><path class="cls-11" d="M460,35a5,5,0,0,1-5,5H405a5,5,0,0,1-5-5V5a5,5,0,0,1,5-5h50a5,5,0,0,1,5,5Z"/><circle class="cls-15" cx="426.83" cy="20" r="10"/><path class="cls-15" d="M426,10a10.35,10.35,0,0,1,10,10,10.35,10.35,0,0,1-10,10Z"/><path class="cls-15" d="M426,30V10h7.17a10.35,10.35,0,0,1,10,10,10.35,10.35,0,0,1-10,10Z"/><circle class="cls-11" cx="426.83" cy="20" r="9.44"/><path class="cls-15" d="M431.44,20c0-2.73-2.44-5-4.44-5.61V25.61C429,25,431.44,22.73,431.44,20Z"/><path class="cls-15" d="M419.56,20c0,2.73,2.44,5,4.44,5.61V14.39C422,15,419.56,17.27,419.56,20Z"/><path class="cls-13" d="M458.53,1.47A5,5,0,0,1,460,5V35a5,5,0,0,1-5,5H405a5,5,0,0,1-3.53-1.47Z"/><path class="cls-14" d="M455,1a4,4,0,0,1,4,4V35a4,4,0,0,1-4,4H405a4,4,0,0,1-4-4V5a4,4,0,0,1,4-4h50m0-1H405a5,5,0,0,0-5,5V35a5,5,0,0,0,5,5h50a5,5,0,0,0,5-5V5a5,5,0,0,0-5-5Z"/><path class="cls-16" d="M380,35a5,5,0,0,1-5,5H325a5,5,0,0,1-5-5V5a5,5,0,0,1,5-5h50a5,5,0,0,1,5,5Z"/><path class="cls-17" d="M335.14,19.94a3,3,0,0,1-.85,2.3,3.5,3.5,0,0,1-2.47.8h-1.72V17H332a3.21,3.21,0,0,1,2.31.79A2.88,2.88,0,0,1,335.14,19.94Zm-1.34,0q0-2-1.73-2h-.69v4h.55Q333.8,22,333.8,20Z"/><path class="cls-17" d="M336.23,23V17h1.29V23Z"/><path class="cls-17" d="M342.64,21.35a1.57,1.57,0,0,1-.59,1.3,2.58,2.58,0,0,1-1.65.48,3.9,3.9,0,0,1-1.72-.37v-1.2a7.2,7.2,0,0,0,1,.39,3.12,3.12,0,0,0,.78.11,1.12,1.12,0,0,0,.65-.16.56.56,0,0,0,.23-.48.52.52,0,0,0-.1-.32,1.05,1.05,0,0,0-.29-.27,7.67,7.67,0,0,0-.79-.41,3.86,3.86,0,0,1-.84-.5,1.84,1.84,0,0,1-.45-.56,1.61,1.61,0,0,1-.17-.75,1.57,1.57,0,0,1,.55-1.27,2.27,2.27,0,0,1,1.51-.46,3.57,3.57,0,0,1,.9.11,6.21,6.21,0,0,1,.9.32l-.42,1a5.91,5.91,0,0,0-.81-.28,2.64,2.64,0,0,0-.63-.08.82.82,0,0,0-.56.17.56.56,0,0,0-.2.45.55.55,0,0,0,.08.3.87.87,0,0,0,.25.24,8,8,0,0,0,.82.43,3.28,3.28,0,0,1,1.17.82A1.58,1.58,0,0,1,342.64,21.35Z"/><path class="cls-17" d="M346.33,17.95a1.32,1.32,0,0,0-1.13.55,2.54,2.54,0,0,0-.4,1.53q0,2,1.53,2a4.77,4.77,0,0,0,1.55-.32v1.08a4.3,4.3,0,0,1-1.67.31,2.55,2.55,0,0,1-2-.81,3.41,3.41,0,0,1-.7-2.31,3.76,3.76,0,0,1,.35-1.66,2.48,2.48,0,0,1,1-1.1,2.94,2.94,0,0,1,1.52-.38,4.09,4.09,0,0,1,1.78.43l-.42,1a7.07,7.07,0,0,0-.69-.28A2,2,0,0,0,346.33,17.95Z"/><path class="cls-17" d="M358.21,17h1.3L357.45,23H356L354,17h1.3l1.14,3.62c.06.21.13.46.2.75s.11.48.13.59a10.6,10.6,0,0,1,.31-1.34Z"/><path class="cls-17" d="M363.78,23h-3.51V17h3.51V18h-2.21v1.34h2.06v1.06h-2.06V22h2.21Z"/><path class="cls-17" d="M366.34,20.71V23h-1.29V17h1.77a3,3,0,0,1,1.84.45,1.8,1.8,0,0,1,.3,2.33,2,2,0,0,1-.84.66q1.37,2,1.79,2.65h-1.43L367,20.71Zm0-1h.42a1.6,1.6,0,0,0,.9-.2.73.73,0,0,0,.29-.64.67.67,0,0,0-.3-.62,1.79,1.79,0,0,0-.92-.18h-.39v1.64Z"/><circle class="cls-18" cx="351.07" cy="20" r="3.04"/><path class="cls-18" d="M380,27.5V35a5,5,0,0,1-.39,1.94,5,5,0,0,1-2.66,2.66A5,5,0,0,1,375,40H330.09Z"/><path class="cls-13" d="M378.53,1.47A5,5,0,0,1,380,5V35a5,5,0,0,1-5,5H325a5,5,0,0,1-3.53-1.47Z"/><path class="cls-19" d="M375,1a4,4,0,0,1,4,4V35a4,4,0,0,1-4,4H325a4,4,0,0,1-4-4V5a4,4,0,0,1,4-4h50m0-1H325a5,5,0,0,0-5,5V35a5,5,0,0,0,5,5h50a5,5,0,0,0,5-5V5a5,5,0,0,0-5-5Z"/><path class="cls-11" d="M60,35a5,5,0,0,1-5,5H5a5,5,0,0,1-5-5V5A5,5,0,0,1,5,0H55a5,5,0,0,1,5,5Z"/><path class="cls-6" d="M1,10V5A5,5,0,0,1,6,0H54a5,5,0,0,1,5,5v5"/><path class="cls-18" d="M59,30v5c0,2.75-2.25,4-5,4H6c-2.75,0-5-1.25-5-4V30"/><path class="cls-6" d="M17.39,23.38a22.51,22.51,0,0,1,.86-2.21l3.38-6.87h2.47L18.25,25.71H15.64l-1-11.42h2.3l.4,6.88c0,.23,0,.58,0,1s0,.93,0,1.17Z"/><path class="cls-6" d="M23.06,25.71,25.5,14.29h2.38L25.44,25.71Z"/><path class="cls-6" d="M35.18,22.34A3.17,3.17,0,0,1,34,24.92a4.79,4.79,0,0,1-3.13.95,4.93,4.93,0,0,1-2.78-.7V23a5.79,5.79,0,0,0,2.8.84,2.41,2.41,0,0,0,1.37-.33,1,1,0,0,0,.49-.91,1.54,1.54,0,0,0-.1-.59,1.73,1.73,0,0,0-.3-.47,8.34,8.34,0,0,0-1-.8,5.21,5.21,0,0,1-1.52-1.53,3.2,3.2,0,0,1-.44-1.63,3.38,3.38,0,0,1,.48-1.8,3.26,3.26,0,0,1,1.38-1.23,4.59,4.59,0,0,1,2.06-.44,6.34,6.34,0,0,1,3.1.77l-.85,1.82a5.3,5.3,0,0,0-2.25-.58,1.58,1.58,0,0,0-1.06.35,1.16,1.16,0,0,0-.41.93,1.38,1.38,0,0,0,.26.83,4.71,4.71,0,0,0,1.16.94,4.64,4.64,0,0,1,1.41,1.38A3.28,3.28,0,0,1,35.18,22.34Z"/><path class="cls-6" d="M42.85,23h-3.7l-1.34,2.72h-2.5l6-11.47h2.91l1.15,11.47H43Zm-.12-2-.2-2.73q-.08-1-.08-2V16q-.34.94-.85,2l-1.47,3Z"/><path class="cls-3" d="M30,0"/><path class="cls-7" d="M58.53,1.47A5,5,0,0,1,60,5V35a5,5,0,0,1-5,5H5a5,5,0,0,1-3.53-1.47Z"/><path class="cls-14" d="M55,1a4,4,0,0,1,4,4V35a4,4,0,0,1-4,4H5a4,4,0,0,1-4-4V5A4,4,0,0,1,5,1H55m0-1H5A5,5,0,0,0,0,5V35a5,5,0,0,0,5,5H55a5,5,0,0,0,5-5V5a5,5,0,0,0-5-5Z"/></g></g></svg>